<svg width="167" height="126" viewBox="0 0 167 126" fill="none" xmlns="http://www.w3.org/2000/svg">
<g id="Automate">
<path id="Vector" opacity="0.3" d="M124.624 27.7926C139.332 32.8372 153.344 46.6627 153.769 64.5213C154.187 82.313 149.323 100.565 122.524 107.615C97.3527 114.235 37.575 116.634 21.6641 94.4417C6.64662 73.5196 11.4145 39.5535 37.6669 28.6912C56.0661 21.0763 95.8956 17.9459 124.624 27.7926Z" fill="#E6E6E6"/>
<path id="Vector_2" d="M70.14 67.3048C70.14 67.3048 84.4394 67.0582 110.408 40.2766L110.191 102.926C110.191 102.926 88.2971 84.7329 71.2631 88.6073C71.2631 88.6073 63.6771 78.0459 70.14 67.3048Z" fill="#E6E6E6"/>
<path id="Vector_3" d="M133.733 71.5221C134.235 53.4002 126.707 38.4891 116.918 38.2171C107.13 37.9451 98.7867 52.4152 98.2842 70.537C97.7817 88.6589 105.31 103.57 115.099 103.842C124.888 104.114 133.23 89.6439 133.733 71.5221Z" fill="#999999"/>
<path id="Vector_4" d="M56.2164 87.9804C56.2164 87.9804 54.179 93.9277 60.12 95.7039C66.061 97.4802 71.1128 113.893 71.1128 113.893L79.2165 110.282C79.2165 110.282 68.5618 91.186 72.9289 87.926L56.2164 87.9804Z" fill="#999999"/>
<path id="Vector_5" d="M56.2164 87.9804C56.2164 87.9804 54.0496 94.425 60.1284 95.7039C65.8523 96.9118 70.6368 112.647 71.1211 113.893L79.2248 110.282C79.2248 110.282 68.5702 91.186 72.9373 87.926L56.2164 87.9804Z" fill="#999999"/>
<path id="Vector_6" d="M99.4652 85.1927L115.848 81.9453L116.366 63.2884L99.0393 62.1641C99.0393 62.1641 96.3423 72.1529 99.4652 85.1927Z" fill="#68E1FD"/>
<path id="Vector_7" d="M99.4652 85.1927L115.848 81.9453L116.366 63.2884L99.0393 62.1641C99.0393 62.1641 96.3423 72.1529 99.4652 85.1927Z" fill="#C9C9C9"/>
<path id="Vector_8" d="M121.144 72.7599C121.287 67.6076 119.147 63.3682 116.365 63.2909C113.583 63.2136 111.212 67.3277 111.069 72.48C110.927 77.6323 113.066 81.8717 115.848 81.949C118.63 82.0263 121.001 77.9122 121.144 72.7599Z" fill="#E6E6E6"/>
<path id="Vector_9" d="M71.8601 67.1084C71.8601 67.1084 47.9916 69.616 46.0377 74.3262C44.0838 79.0364 46.7475 90.6259 52.5257 91.2111C58.3039 91.7962 70.8957 88.0765 70.8957 88.0765C70.8957 88.0765 66.4409 75.9562 71.8601 67.1084Z" fill="#C9C9C9"/>
<path id="Vector_10" d="M70.3404 87.9344L72.7243 95.5618L76.5027 94.028C76.9504 93.8466 77.3167 93.508 77.5327 93.0755C77.7487 92.643 77.7996 92.1465 77.6759 91.6792L76.7699 88.2646C76.7699 88.2646 73.0625 87.157 70.3404 87.9344Z" fill="#C9C9C9"/>
<path id="Vector_11" d="M75.15 59.7694C75.15 59.7694 80.5775 56.2754 82.903 59.853C85.2284 63.4305 79.1204 64.5799 79.1204 64.5799L75.15 59.7694Z" fill="#24285B"/>
<path id="Vector_12" d="M80.3479 33.2385L90.7854 47.5571C90.9414 47.7921 91.1485 47.9888 91.391 48.1326C91.6335 48.2764 91.9054 48.3636 92.1862 48.3877C92.4671 48.4118 92.7498 48.3722 93.0132 48.2718C93.2767 48.1714 93.5141 48.0129 93.7079 47.8079L100.705 40.3936L103.001 42.7174C103.001 42.7174 95.7578 55.1804 91.4659 55.1846C87.174 55.1887 79.2373 46.8592 79.2373 46.8592L80.3479 33.2385Z" fill="#68E1FD"/>
<path id="Vector_13" opacity="0.46" d="M80.3479 33.2385L90.7854 47.5571C90.9414 47.7921 91.1485 47.9888 91.391 48.1326C91.6335 48.2764 91.9054 48.3636 92.1862 48.3877C92.4671 48.4118 92.7498 48.3722 93.0132 48.2718C93.2767 48.1714 93.5141 48.0129 93.7079 47.8079L100.705 40.3936L103.001 42.7174C103.001 42.7174 95.7578 55.1804 91.4659 55.1846C87.174 55.1887 79.2373 46.8592 79.2373 46.8592L80.3479 33.2385Z" fill="white"/>
<path id="Vector_14" d="M77.9598 20.3616L74.9538 28.0141L79.1037 31.809L79.7341 23.258L77.9598 20.3616Z" fill="#F4A28C"/>
<path id="Vector_15" opacity="0.31" d="M79.6924 24.5996C79.1694 24.3408 78.7338 23.9338 78.4399 23.4293C78.4399 23.4293 78.1769 24.913 79.4711 26.7185L79.6924 24.5996Z" fill="#CE8172"/>
<path id="Vector_16" d="M81.6713 20.4996C81.6713 20.4996 81.6713 23.0072 81.1328 24.633C81.0797 24.7904 80.996 24.9356 80.8864 25.0603C80.7768 25.185 80.6436 25.2866 80.4944 25.3594C80.3452 25.4321 80.1831 25.4744 80.0175 25.4839C79.8519 25.4934 79.686 25.4698 79.5296 25.4146C79.0139 25.2695 78.551 24.9787 78.1963 24.5769C77.8416 24.1751 77.6101 23.6795 77.5297 23.1493L76.9578 20.905C76.8906 20.4435 76.9682 19.9725 77.1799 19.557C77.3915 19.1415 77.7267 18.8021 78.1393 18.5854C79.6298 17.6868 81.7381 18.9699 81.6713 20.4996Z" fill="#F4A28C"/>
<path id="Vector_17" d="M81.6004 22.0794L82.2183 23.0992C82.2497 23.1578 82.2668 23.2231 82.2679 23.2897C82.2691 23.3562 82.2543 23.4221 82.2249 23.4817C82.1955 23.5414 82.1523 23.5932 82.0989 23.6328C82.0454 23.6724 81.9833 23.6987 81.9177 23.7094L80.9491 23.8097L81.6004 22.0794Z" fill="#F4A28C"/>
<path id="Vector_18" d="M76.5403 23.4711L76.3315 20.0649C76.3315 20.0649 74.5279 19.3753 75.3295 18.2636C76.1311 17.1519 76.7198 18.1173 77.0246 16.7214C77.3293 15.3255 78.5192 15.2669 79.1705 16.2157C79.8218 17.1644 79.6632 15.9858 80.6986 16.036C81.734 16.0861 81.9093 16.5876 81.7799 17.3566C81.6505 18.1257 83.262 17.5991 83.4499 18.6397C83.6378 19.6804 83.4958 20.6291 80.9449 20.3115C78.394 19.9939 79.8176 22.3678 76.5403 23.4711Z" fill="#FFD200"/>
<path id="Vector_19" d="M78.8407 22.4263C78.8407 22.4263 78.9033 21.4609 78.1727 21.4776C77.4421 21.4943 77.3377 22.886 78.323 23.095L78.8407 22.4263Z" fill="#F4A28C"/>
<path id="Vector_20" opacity="0.08" d="M81.1745 63.5099C81.1745 63.5099 88.3054 61.1736 88.8565 66.7322C89.4076 72.2908 84.573 81.4228 84.573 81.4228C84.573 81.4228 87.4078 85.5354 82.3978 84.3777L80.995 82.3548L82.0095 72.7631L80.8447 64.9559L76.5945 60.438L81.1745 63.5099Z" fill="black"/>
<path id="Vector_21" d="M75.2961 59.6565L75.1917 59.7359L75.1583 59.7609L75.1333 59.7818L67.9231 59.0964L63.0091 58.6283C63.0091 58.6283 61.8317 47.975 63.2721 38.9475C64.2073 33.0963 68.8249 30.2459 71.9686 28.9587C72.9327 28.5562 73.932 28.2441 74.9538 28.0267L79.1037 31.8216C92.2925 45.5927 77.0496 58.2647 75.2961 59.6565Z" fill="#68E1FD"/>
<path id="Vector_22" d="M63.0049 58.6158C63.0049 58.6158 61.3349 68.5461 67.2217 67.9442C70.2662 67.6721 73.3301 67.7001 76.3691 68.0278C77.1298 68.104 77.8371 68.4533 78.3605 69.011C78.884 69.5688 79.188 70.2973 79.2165 71.0621L79.563 79.9684L82.4229 81.1763L84.4728 70.4937C84.7977 68.8094 84.5495 67.0646 83.7677 65.5381C82.986 64.0116 81.7158 62.7913 80.16 62.0722L75.15 59.7693L63.0049 58.6158Z" fill="#24285B"/>
<path id="Vector_23" opacity="0.08" d="M75.2961 59.6565L75.1917 59.7359L75.1583 59.7609L75.1333 59.7818L67.9231 59.0964C67.9231 59.0964 70.2569 55.0716 72.3903 50.6624C73.9476 47.44 72.7327 35.278 71.9728 28.9587C72.9369 28.5562 73.9362 28.2441 74.9579 28.0267L79.1079 31.8216C92.2925 45.5927 77.0496 58.2647 75.2961 59.6565Z" fill="black"/>
<path id="Vector_24" d="M71.6889 37.982C76.8283 38.7343 79.6214 32.1685 75.6343 28.8458C74.4564 27.8525 73.1024 27.0898 71.643 26.5973C66.1445 24.8002 44.0295 13.9462 44.0295 13.9462L42.2426 17.3441C42.2426 17.3441 57.9949 30.7725 66.7332 36.0762C68.2407 37.0378 69.9261 37.6859 71.6889 37.982V37.982Z" fill="#68E1FD"/>
<path id="Vector_25" opacity="0.46" d="M71.6889 37.982C76.8283 38.7343 79.6214 32.1685 75.6343 28.8458C74.4564 27.8525 73.1024 27.0898 71.643 26.5973C66.1445 24.8002 44.0295 13.9462 44.0295 13.9462L42.2426 17.3441C42.2426 17.3441 57.9949 30.7725 66.7332 36.0762C68.2407 37.0378 69.9261 37.6859 71.6889 37.982V37.982Z" fill="white"/>
<path id="Vector_26" d="M43.7331 14.5188C43.7331 14.5188 41.7041 10.6445 40.2261 12.7384C38.7482 14.8323 42.2427 17.3358 42.2427 17.3358L43.7331 14.5188Z" fill="#F4A28C"/>
<path id="Vector_27" d="M102.288 41.9775C102.288 41.9775 105.74 39.6412 103.411 37.585C101.081 35.5287 100.718 40.3935 100.718 40.3935L102.288 41.9775Z" fill="#F4A28C"/>
<path id="Vector_28" d="M99.2174 39.0733L103.37 39.2926L103.715 32.74L99.5627 32.5207L99.2174 39.0733Z" fill="#FFD200"/>
<path id="Vector_29" d="M81.7381 80.8879C81.7381 80.8879 81.8509 83.4332 83.1576 83.8135C83.1576 83.8135 83.2537 85.619 81.3582 85.1258C79.4628 84.6327 79.1914 82.0999 79.1914 82.0999L80.064 80.1983L81.7381 80.8879Z" fill="#68E1FD"/>
<path id="Vector_30" d="M114.925 57.3035L132.335 41.5806L133.83 49.1202L147.899 40.0676L128.026 59.0296L127.788 51.1138L114.925 57.3035Z" fill="#68E1FD"/>
<path id="Vector_31" d="M114.925 87.4789L129.934 101.033L131.22 94.5295L143.353 102.337L126.219 85.9868L126.014 92.8118L114.925 87.4789Z" fill="#68E1FD"/>
<path id="Vector_32" d="M46.5011 44.226H43.3824C43.9419 38.0656 46.7976 36.1974 47.2443 35.9424C45.6148 36.8 44.1725 37.9744 43.0018 39.3967C41.8312 40.8191 40.9557 42.4609 40.4265 44.226H30.7238C28.2358 44.226 25.8496 45.2155 24.0903 46.9766C22.331 48.7378 21.3426 51.1265 21.3426 53.6172C21.3426 56.1079 22.331 58.4965 24.0903 60.2577C25.8496 62.0189 28.2358 63.0083 30.7238 63.0083H46.5011C48.9892 63.0083 51.3754 62.0189 53.1347 60.2577C54.894 58.4965 55.8824 56.1079 55.8824 53.6172C55.8824 51.1265 54.894 48.7378 53.1347 46.9766C51.3754 45.2155 48.9892 44.226 46.5011 44.226V44.226Z" fill="#E6E6E6"/>
<path id="Vector_33" d="M47.2443 35.9424L47.3027 35.909L47.2443 35.9424Z" fill="#E6E6E6"/>
<path id="Vector_34" opacity="0.08" d="M42.1132 52.075C42.1078 52.3843 42.0644 52.6917 41.9838 52.9903C41.8644 53.4061 41.6564 53.7911 41.3743 54.1188C41.1155 54.4163 40.8365 54.6956 40.5393 54.9547C40.0049 55.4311 39.4538 55.895 38.9235 56.3756C38.6814 56.593 38.4392 56.7936 38.2054 57.0402C38.2054 57.0402 38.1762 57.0402 38.1553 57.0402C37.5875 56.4969 36.9947 55.9786 36.4018 55.4687C36.0344 55.1469 35.6629 54.8293 35.3163 54.4824C35.0403 54.2174 34.8027 53.9149 34.6108 53.5838C34.4395 53.271 34.3264 52.9298 34.2768 52.5766C34.2407 52.3177 34.2253 52.0563 34.2308 51.795C34.24 51.3481 34.3989 50.9172 34.6821 50.5716C34.9653 50.226 35.3563 49.9856 35.7923 49.8892C36.1359 49.8143 36.4929 49.8274 36.8302 49.9275C37.1674 50.0276 37.4738 50.2114 37.7211 50.4618C37.8835 50.616 38.0239 50.7918 38.1386 50.9842V51.0177C38.2115 50.8947 38.2954 50.7786 38.3891 50.6708C38.6754 50.3128 39.0668 50.054 39.508 49.931C39.7764 49.8539 40.0578 49.8334 40.3345 49.8706C40.6112 49.9079 40.8772 50.0021 41.1157 50.1474C41.3542 50.2927 41.56 50.4859 41.7202 50.7148C41.8804 50.9437 41.9915 51.2034 42.0464 51.4774C42.0926 51.6732 42.115 51.8739 42.1132 52.075V52.075Z" fill="black"/>
</g>
</svg>
