<svg width="167" height="126" viewBox="0 0 167 126" fill="none" xmlns="http://www.w3.org/2000/svg">
<g id="Create">
<path id="Vector" opacity="0.3" d="M120.904 27.7965C134.264 32.3848 147.023 44.9235 147.411 61.1329C147.799 77.3422 143.365 93.8478 118.992 100.246C96.1001 106.257 41.7499 108.435 27.2627 88.2917C13.6062 69.3001 17.9524 38.4706 41.8167 28.6099C58.5543 21.6982 94.7724 18.8576 120.904 27.7965Z" fill="#E6E6E6"/>
<path id="Vector_2" d="M128.014 37.274H38.9903V93.5689H128.014V37.274Z" fill="#68E1FD"/>
<path id="Vector_3" d="M120.286 42.8005H46.7099V88.0415H120.286V42.8005Z" fill="#24285B"/>
<path id="Vector_4" d="M132.961 93.568H34.8864V101.735H132.961V93.568Z" fill="#68E1FD"/>
<path id="Vector_5" opacity="0.08" d="M132.961 93.568H34.8864V101.735H132.961V93.568Z" fill="black"/>
<path id="Vector_6" d="M86.076 88.0457L90.4848 86.3564L83.7881 68.8707L51.9537 81.0423L54.6341 88.0457H86.076Z" fill="#FFD200"/>
<path id="Vector_7" opacity="0.08" d="M86.076 88.0461L90.4848 86.3567L75.6427 82.0103L69.9354 80.3376L66.8 85.389L65.1551 88.0461H86.076Z" fill="black"/>
<path id="Vector_8" opacity="0.08" d="M83.7923 68.8707L51.9537 81.0423L72.5072 87.0613L83.7923 68.8707Z" fill="black"/>
<path id="Vector_9" d="M94.3185 40.5098L61.0926 49.1258L65.8334 67.3751L99.0594 58.7591L94.3185 40.5098Z" fill="#FFD200"/>
<path id="Vector_10" opacity="0.08" d="M99.0602 58.755L65.8356 67.3727L79.1664 50.4293L99.0602 58.755Z" fill="black"/>
<path id="Vector_11" opacity="0.08" d="M94.3176 40.5059L61.0929 49.1236L80.991 57.4493L94.3176 40.5059Z" fill="black"/>
<path id="Vector_12" d="M123.709 27.1448L92.3181 13.2666L84.6817 30.5079L116.072 44.3861L123.709 27.1448Z" fill="#FFD200"/>
<path id="Vector_13" opacity="0.08" d="M116.078 44.3856L84.6857 30.5079L105.669 25.5108L116.078 44.3856Z" fill="black"/>
<path id="Vector_14" opacity="0.08" d="M123.714 27.1417L92.3218 13.2641L102.734 32.1388L123.714 27.1417Z" fill="black"/>
<path id="Vector_15" opacity="0.08" d="M91.992 93.568H75.8598V97.6516H91.992V93.568Z" fill="black"/>
<path id="Vector_16" opacity="0.08" d="M108.45 54.7389V58.6849V77.618H128.01V58.6849V54.7389H108.45Z" fill="black"/>
<path id="Vector_17" d="M135.316 56.7112H110.579V75.6445H135.316V56.7112Z" fill="#E6E6E6"/>
<path id="Vector_18" d="M135.316 52.7653H110.579V56.7113H135.316V52.7653Z" fill="#B3B3B3"/>
<path id="Vector_19" d="M127.488 69.6543H128.936C128.482 70.5736 127.752 71.3287 126.849 71.815C125.636 72.4444 124.282 72.7531 122.916 72.7118C121.585 72.7444 120.262 72.4853 119.042 71.9527C118.005 71.4983 117.15 70.7116 116.612 69.7169C116.08 68.7289 115.805 67.6228 115.814 66.5009C115.809 65.2572 116.121 64.0326 116.72 62.9429C117.28 61.8897 118.142 61.0281 119.196 60.4693C120.306 59.9012 121.54 59.6147 122.787 59.6351C123.841 59.6166 124.885 59.8451 125.834 60.3025C126.688 60.716 127.398 61.3756 127.872 62.1962C128.339 63.0111 128.581 63.9352 128.573 64.8741C128.581 66.0082 128.206 67.1118 127.509 68.0067C127.124 68.5595 126.61 69.0097 126.011 69.318C125.412 69.6263 124.746 69.7833 124.073 69.7753C123.781 69.7909 123.492 69.7229 123.238 69.5793C123.044 69.4395 122.908 69.233 122.858 68.9995C122.617 69.2454 122.329 69.4407 122.011 69.574C121.694 69.7072 121.353 69.7757 121.008 69.7753C120.658 69.7848 120.31 69.7202 119.987 69.5858C119.664 69.4513 119.373 69.2501 119.134 68.9953C118.877 68.7145 118.679 68.3854 118.552 68.0273C118.424 67.6692 118.369 67.2892 118.39 66.9097C118.382 65.8673 118.695 64.8476 119.288 63.9898C119.574 63.5034 119.981 63.0995 120.47 62.818C120.959 62.5364 121.513 62.3868 122.077 62.3839C122.431 62.3622 122.784 62.4368 123.099 62.5999C123.413 62.763 123.678 63.0084 123.864 63.3099L124.035 62.5549H125.83L124.787 67.4645C124.74 67.6607 124.708 67.86 124.691 68.0609C124.685 68.1526 124.713 68.2433 124.77 68.3154C124.793 68.343 124.821 68.3651 124.854 68.3803C124.886 68.3954 124.922 68.4032 124.958 68.403C125.272 68.352 125.563 68.2065 125.793 67.9859C126.271 67.6297 126.657 67.1651 126.92 66.6302C127.196 66.0697 127.339 65.453 127.337 64.8282C127.349 64.3028 127.246 63.7812 127.037 63.2989C126.828 62.8166 126.518 62.385 126.127 62.0335C125.322 61.2827 124.196 60.9073 122.749 60.9073C121.658 60.873 120.578 61.1323 119.622 61.6581C118.776 62.1476 118.103 62.8863 117.693 63.7729C117.264 64.6571 117.042 65.6269 117.042 66.6094C117.032 67.529 117.283 68.4326 117.764 69.2164C118.24 69.9939 118.955 70.5968 119.802 70.9349C121.666 71.6209 123.708 71.6518 125.592 71.0225C126.337 70.7476 126.993 70.2745 127.488 69.6543V69.6543ZM120.136 66.8596C120.104 67.3048 120.228 67.7472 120.486 68.111C120.589 68.2414 120.721 68.3466 120.87 68.4189C121.02 68.4911 121.184 68.5285 121.351 68.5281C121.607 68.5292 121.859 68.4631 122.081 68.3362C122.274 68.2287 122.447 68.0874 122.591 67.9191C122.874 67.5598 123.085 67.149 123.213 66.7095C123.379 66.2316 123.468 65.7303 123.476 65.2245C123.503 64.8019 123.375 64.3839 123.117 64.0482C123.008 63.9152 122.87 63.8085 122.714 63.7363C122.557 63.6641 122.387 63.6281 122.215 63.6311C121.809 63.6378 121.422 63.8006 121.133 64.0858C120.772 64.4383 120.514 64.8824 120.386 65.3705C120.231 65.8522 120.147 66.3538 120.136 66.8596V66.8596Z" fill="#B3B3B3"/>
<path id="Vector_20" opacity="0.08" d="M51.7074 54.6344H38.9486V69.1586H51.7074V54.6344Z" fill="black"/>
<path id="Vector_21" d="M50.0416 52.3818H34.5148V66.9059H50.0416V52.3818Z" fill="#E6E6E6"/>
<path id="Vector_22" d="M45.5575 58.3801L42.276 54.9931L38.9944 58.3801H40.4974V64.2991H44.0545V58.3801H45.5575Z" fill="#B3B3B3"/>
</g>
</svg>
