<svg width="545" height="411" viewBox="0 0 545 411" fill="none" xmlns="http://www.w3.org/2000/svg">
<g id="Hero" clip-path="url(#clip0)">
<path id="Vector" opacity="0.18" d="M470.879 388.485C460.562 394.107 449.641 398.542 438.327 401.706C384.983 416.783 329.942 411.964 277.144 398.21C248.488 390.744 217.143 380.572 187.308 382.14C165.74 383.262 145.035 391.506 122.979 391.405C86.6873 391.261 61.0505 372.703 35.9601 346.993C10.2946 320.68 7.05946 269.737 12.1207 234.202C17.5845 195.818 35.5288 159.549 62.2008 132.948C74.1493 121.007 87.6938 111.094 100.491 100.204C139.126 67.4594 172.886 25.2343 219.688 8.27238C266.49 -8.68957 318.468 2.93491 365.198 20.5586C401.144 34.0966 438.355 53.5043 455.926 89.3272C466.149 110.159 468.507 134.415 477.752 155.765C500.945 209.313 545.101 235.827 532.75 301.316C530.464 314.593 526.28 327.471 520.327 339.556C509.313 360.963 491.412 377.249 470.879 388.485Z" fill="#68E1FD"/>
<path id="Vector_2" d="M299.23 296.568L374.86 331.096C376.468 331.828 378.3 331.892 379.955 331.275C381.61 330.657 382.953 329.408 383.689 327.802L403.028 285.404C403.4 284.615 403.605 283.758 403.632 282.886C403.682 281.565 403.34 280.259 402.649 279.133C401.958 278.006 400.949 277.109 399.749 276.556L324.119 242.028C323.325 241.644 322.462 241.423 321.581 241.377C320.7 241.332 319.819 241.463 318.99 241.764C318.161 242.064 317.4 242.527 316.752 243.126C316.104 243.725 315.583 244.447 315.218 245.251L295.865 287.677C295.498 288.473 295.292 289.334 295.258 290.21C295.224 291.086 295.364 291.96 295.668 292.782C295.973 293.604 296.437 294.358 297.033 295C297.629 295.642 298.346 296.16 299.143 296.525L299.23 296.568Z" fill="#68E1FD"/>
<path id="Vector_3" d="M299.23 296.568L374.86 331.096C376.468 331.828 378.3 331.892 379.955 331.275C381.61 330.657 382.953 329.408 383.689 327.802L403.028 285.404C403.4 284.615 403.605 283.758 403.632 282.886C403.682 281.565 403.34 280.259 402.649 279.133C401.958 278.006 400.949 277.109 399.749 276.556L324.119 242.028C323.325 241.644 322.462 241.423 321.581 241.377C320.7 241.332 319.819 241.463 318.99 241.764C318.161 242.064 317.4 242.527 316.752 243.126C316.104 243.725 315.583 244.447 315.218 245.251L295.865 287.677C295.498 288.473 295.292 289.334 295.258 290.21C295.224 291.086 295.364 291.96 295.668 292.782C295.973 293.604 296.437 294.358 297.033 295C297.629 295.642 298.346 296.16 299.143 296.525L299.23 296.568Z" fill="url(#paint0_linear)"/>
<path id="Vector_4" d="M295.736 294.985L371.366 329.514C372.972 330.247 374.803 330.313 376.458 329.698C378.112 329.083 379.456 327.837 380.195 326.233L399.534 283.821C399.898 283.035 400.103 282.184 400.137 281.318C400.187 279.996 399.843 278.688 399.149 277.562C398.455 276.435 397.443 275.539 396.241 274.988L320.625 240.46C319.017 239.728 317.185 239.663 315.53 240.281C313.875 240.899 312.532 242.148 311.796 243.754L292.443 286.166C291.712 287.773 291.648 289.604 292.265 291.258C292.883 292.911 294.131 294.252 295.736 294.985V294.985Z" fill="#68E1FD"/>
<path id="Vector_5" d="M402.711 279.232L379.548 218.347L318.439 242.1L396.802 289.835L402.711 279.232Z" fill="#68E1FD"/>
<path id="Vector_6" d="M314.945 240.575L338.598 292.367L402.74 279.261L379.576 218.376C379.576 218.376 316.671 239.683 314.945 240.575Z" fill="url(#paint1_linear)"/>
<path id="Vector_7" d="M360.64 288.382L366.823 327.442L295.75 294.985L330.114 273.808L338.569 292.338L360.64 288.382Z" fill="url(#paint2_linear)"/>
<path id="Vector_8" d="M352.3 69.4303H213.663C201.545 69.4303 191.722 79.2595 191.722 91.3845V104.433C191.722 116.558 201.545 126.387 213.663 126.387H352.3C364.418 126.387 374.242 116.558 374.242 104.433V91.3845C374.242 79.2595 364.418 69.4303 352.3 69.4303Z" fill="white"/>
<path id="Vector_9" d="M383.113 133.048H244.476C232.358 133.048 222.535 142.878 222.535 155.003V168.051C222.535 180.176 232.358 190.006 244.476 190.006H383.113C395.231 190.006 405.055 180.176 405.055 168.051V155.003C405.055 142.878 395.231 133.048 383.113 133.048Z" fill="white"/>
<path id="Vector_10" d="M342.825 198.177H204.188C192.07 198.177 182.246 208.006 182.246 220.131V233.18C182.246 245.305 192.07 255.134 204.188 255.134H342.825C354.943 255.134 364.767 245.305 364.767 233.18V220.131C364.767 208.006 354.943 198.177 342.825 198.177Z" fill="white"/>
<path id="Vector_11" opacity="0.18" d="M235.461 227.051C235.461 231.319 234.196 235.492 231.826 239.041C229.456 242.589 226.088 245.355 222.147 246.989C218.206 248.622 213.87 249.049 209.686 248.217C205.502 247.384 201.659 245.329 198.643 242.311C195.627 239.293 193.572 235.448 192.74 231.261C191.908 227.075 192.335 222.736 193.968 218.793C195.6 214.85 198.364 211.479 201.911 209.108C205.458 206.737 209.628 205.471 213.893 205.471C216.711 205.456 219.503 205.996 222.112 207.061C224.72 208.126 227.094 209.694 229.097 211.677C231.099 213.659 232.692 216.017 233.784 218.616C234.876 221.214 235.446 224.002 235.461 226.821V227.051Z" fill="#68E1FD"/>
<path id="Vector_12" opacity="0.34" d="M213.304 231.598C216.83 231.598 219.688 228.738 219.688 225.21C219.688 221.682 216.83 218.822 213.304 218.822C209.778 218.822 206.92 221.682 206.92 225.21C206.92 228.738 209.778 231.598 213.304 231.598Z" fill="#68E1FD"/>
<path id="Vector_13" opacity="0.34" d="M227.208 244.028C223.246 247.139 218.32 248.764 213.286 248.622C208.251 248.48 203.425 246.58 199.644 243.251C200.608 240.301 202.499 237.743 205.035 235.956C207.571 234.17 210.616 233.252 213.716 233.34C216.816 233.427 219.805 234.515 222.236 236.441C224.668 238.367 226.412 241.029 227.208 244.028V244.028Z" fill="#68E1FD"/>
<path id="Vector_14" opacity="0.18" d="M347.742 210.204H256.799V215.772H347.742V210.204Z" fill="#68E1FD"/>
<path id="Vector_15" opacity="0.18" d="M347.742 220.088H256.799V225.656H347.742V220.088Z" fill="#68E1FD"/>
<path id="Vector_16" opacity="0.18" d="M347.742 229.972H256.799V235.54H347.742V229.972Z" fill="#68E1FD"/>
<path id="Vector_17" opacity="0.18" d="M347.742 239.855H256.799V245.423H347.742V239.855Z" fill="#68E1FD"/>
<path id="Vector_18" opacity="0.18" d="M226.963 372.731C310.185 372.731 377.65 364.506 377.65 354.359C377.65 344.213 310.185 335.988 226.963 335.988C143.742 335.988 76.2773 344.213 76.2773 354.359C76.2773 364.506 143.742 372.731 226.963 372.731Z" fill="#68E1FD"/>
<path id="Vector_19" d="M132.023 348.475C130.743 349.454 129.621 351.137 130.297 352.619C130.973 354.1 132.799 354.302 134.352 354.345C140.225 354.498 146.096 353.976 151.85 352.791C152.022 352.776 152.183 352.705 152.311 352.59C152.426 352.443 152.482 352.258 152.469 352.072C152.895 348.492 153.078 344.887 153.015 341.282C149.852 340.39 146.185 341.469 143.353 342.922C139.715 344.72 135.258 345.972 132.023 348.475Z" fill="#68E1FD"/>
<path id="Vector_20" d="M191.808 346.303C193.088 347.296 194.224 348.979 193.548 350.446C192.872 351.914 191.032 352.144 189.479 352.173C183.604 352.319 177.732 351.783 171.98 350.576C171.809 350.56 171.648 350.49 171.52 350.374C171.416 350.222 171.366 350.04 171.376 349.856C170.936 346.278 170.753 342.672 170.83 339.066C173.993 338.16 177.66 339.253 180.492 340.706C184.13 342.562 188.573 343.814 191.808 346.303Z" fill="#68E1FD"/>
<path id="Vector_21" d="M144.302 244.661V342.275C144.302 342.275 149.737 344.217 153.044 342.275L163.31 260.04L170.499 340.922C170.499 340.922 176.251 342.275 180.564 340.332L184.878 243.941C184.878 243.941 159.399 238.201 144.302 244.661Z" fill="#473F47"/>
<path id="Vector_22" d="M218.351 191.66C215.604 202.695 215.648 208.09 211.463 218.664C210.342 221.541 208.588 224.706 205.568 225.066C203.268 225.339 201.154 223.8 199.328 222.361C194.315 218.362 189.287 214.362 184.245 210.363C183.737 222.301 184.121 234.261 185.395 246.142C178.436 249.811 171.103 253.566 163.238 253.336C158.296 252.986 153.47 251.671 149.032 249.466C147.954 249.005 146.904 248.531 145.855 248.027C145.472 247.898 145.136 247.658 144.891 247.337C143.453 245.092 144.129 239.453 144.014 236.791C143.842 232.734 143.64 228.663 143.439 224.591C143.353 223.153 143.281 221.815 143.18 220.419C142.821 213.816 142.404 207.241 141.742 200.637C141.857 201.774 140.722 203.817 140.305 204.953C139.773 206.737 139.241 208.55 138.694 210.348C138.108 211.985 137.628 213.657 137.256 215.355C136.94 217.412 137.932 219.383 137.803 221.498C137.794 222.382 137.582 223.251 137.183 224.04C136.784 224.828 136.209 225.514 135.502 226.044C133.273 227.483 130.355 226.591 127.925 225.555C126.566 225.153 125.385 224.301 124.575 223.138C124.045 221.819 123.969 220.362 124.359 218.995C125.484 211.341 127.476 203.841 130.297 196.638C132.727 190.336 135.114 183.46 141.8 180.64C145.265 179.201 149.392 179.1 153.101 179.028L166.157 178.769C170.299 178.477 174.461 178.802 178.508 179.733C183.814 181.172 187.135 185.143 190.14 189.531C193.879 195.036 197.387 200.704 200.665 206.536C202.995 198.781 202.75 196.782 205.568 189.2C209.906 189.549 214.193 190.374 218.351 191.66V191.66Z" fill="#68E1FD"/>
<path id="Vector_23" d="M162.677 222.505C161.956 223.454 161.022 224.22 159.951 224.742C158.879 225.265 157.701 225.528 156.509 225.512C154.585 225.582 152.665 225.751 150.758 226.015C150.232 226.072 149.734 226.276 149.32 226.605C149.022 226.972 148.82 227.407 148.73 227.871C146.933 234.59 148.572 241.683 149.147 248.603C149.205 248.888 149.175 249.184 149.061 249.451V249.451C147.983 248.991 146.933 248.516 145.883 248.013C145.501 247.884 145.165 247.643 144.92 247.322C143.482 245.078 144.158 239.438 144.043 236.777C143.87 232.72 143.669 228.648 143.468 224.577C143.382 223.138 143.31 221.8 143.209 220.405C143.54 220.318 143.885 220.261 144.215 220.203L153.49 218.621C155.776 218.218 159.241 216.866 161.527 217.729C163.813 218.592 163.741 220.793 162.677 222.505Z" fill="url(#paint3_linear)"/>
<path id="Vector_24" d="M152.713 178.985C154.899 177.057 156.912 173.504 156.509 170.483C156.106 167.461 153.907 164.282 152.627 161.419C151.98 159.98 151.333 158.211 152.109 156.801C152.574 156.171 153.099 155.588 153.676 155.06C154.999 153.621 155.359 151.521 156.236 149.751C156.94 148.376 157.978 147.198 159.254 146.326C160.529 145.454 162.003 144.916 163.54 144.759C165.081 144.647 166.624 144.951 168.008 145.639C169.391 146.328 170.565 147.375 171.405 148.672C172.18 150.06 172.701 151.575 172.944 153.147C173.758 157.333 173.812 161.631 173.102 165.836C172.9 167.294 172.411 168.697 171.664 169.965C171.289 170.593 170.771 171.123 170.15 171.511C169.53 171.899 168.827 172.133 168.098 172.195C167.336 172.195 166.459 172.022 165.927 172.554C165.685 172.816 165.533 173.149 165.496 173.504C165.296 174.529 165.422 175.59 165.855 176.54C166.362 177.74 166.729 178.995 166.948 180.28C167.235 181.647 167.422 183.287 166.373 184.193C165.715 184.657 164.918 184.881 164.115 184.826C161.89 184.814 159.699 184.279 157.719 183.265C155.738 182.25 154.024 180.784 152.713 178.985Z" fill="#FCBDBA"/>
<path id="Vector_25" d="M167.063 203.213L176.898 171.547L131.433 182.841L156.322 217.513L167.063 203.213Z" fill="url(#paint4_linear)"/>
<path id="Vector_26" d="M176.121 141.565C175.851 140.582 175.325 139.689 174.597 138.976C173.58 137.952 172.309 137.217 170.914 136.845C169.52 136.474 168.052 136.479 166.66 136.861C165.337 137.235 164.115 137.954 162.807 138.4C160.509 138.918 158.171 139.236 155.819 139.35C153.49 139.681 151.002 140.63 149.909 142.716C149.353 144.169 149.014 145.696 148.903 147.248C148.126 151.205 145.294 155.132 146.746 158.901C148.198 162.671 153.705 165.562 155.963 168.728C156.538 167.375 155.848 164.67 155.258 163.318C154.764 163.342 154.275 163.205 153.866 162.927C153.456 162.65 153.148 162.247 152.986 161.779C152.548 161.063 152.305 160.244 152.282 159.405C152.23 158.987 152.279 158.563 152.424 158.167C152.569 157.772 152.806 157.417 153.116 157.132C153.512 156.95 153.961 156.918 154.379 157.042C154.797 157.167 155.155 157.439 155.388 157.808C155.829 158.569 156.066 159.431 156.078 160.311C158.953 157.563 155.804 151.996 158.393 148.96C160.375 149.681 162.408 150.254 164.475 150.672C166.662 150.864 168.864 150.58 170.931 149.838C173.849 148.716 176.898 144.817 176.121 141.565Z" fill="#FC682D"/>
<path id="Vector_27" d="M130.24 214.679C128.884 215.241 127.713 216.173 126.861 217.369C126.368 218.205 126.099 219.155 126.082 220.125C126.064 221.096 126.298 222.054 126.76 222.908C127.24 223.749 127.885 224.485 128.655 225.071C129.426 225.657 130.307 226.081 131.246 226.318C133.949 227.037 136.811 226.318 139.528 225.627L149.234 223.124C149.494 223.083 149.735 222.963 149.924 222.778C150.008 222.611 150.052 222.426 150.052 222.239C150.052 222.052 150.008 221.867 149.924 221.699C149.305 219.34 148.903 216.779 148.055 214.506C147.292 212.492 146.387 212.506 144.259 212.449C139.6 212.362 134.524 212.578 130.24 214.679Z" fill="#68E1FD"/>
<path id="Vector_28" d="M210.745 192.854C211.156 192.881 211.566 192.786 211.924 192.581C212.181 192.388 212.388 192.137 212.528 191.847C213.174 190.726 213.521 189.458 213.534 188.164C213.488 187.534 213.551 186.902 213.721 186.294C213.916 185.896 214.153 185.52 214.425 185.172C215.416 183.281 215.764 181.12 215.418 179.014C215.417 178.21 215.26 177.414 214.957 176.669C214.667 176.109 214.26 175.617 213.764 175.228C213.268 174.838 212.695 174.559 212.082 174.41C210.855 174.111 209.591 173.99 208.329 174.051C207.515 173.978 206.695 174.107 205.942 174.425C204.849 174.971 204.274 177.431 204.059 178.568C203.72 180.44 204.083 182.371 205.079 183.992C205.407 184.441 205.686 184.923 205.913 185.431C206.517 187.071 205.094 189.416 206.143 190.84C206.739 191.464 207.452 191.964 208.242 192.31C209.032 192.655 209.882 192.841 210.745 192.854Z" fill="#FCBDBA"/>
<path id="Vector_29" d="M229.796 151.636V185.905C228.65 184.609 227.383 183.424 226.014 182.366C220.232 177.762 213.139 175.112 205.755 174.799C204.451 174.776 203.179 174.386 202.085 173.674C200.992 172.962 200.121 171.955 199.572 170.77V170.77C199.04 169.57 198.837 168.249 198.983 166.944C199.245 165.296 200.1 163.802 201.388 162.742C202.675 161.682 204.305 161.13 205.971 161.189C209.853 161.031 217.474 159.592 229.796 151.636Z" fill="#68E1FD"/>
<path id="Vector_30" d="M231.363 185.833C236.239 185.833 240.192 178.175 240.192 168.728C240.192 159.28 236.239 151.622 231.363 151.622C226.487 151.622 222.535 159.28 222.535 168.728C222.535 178.175 226.487 185.833 231.363 185.833Z" fill="#68E1FD"/>
<path id="Vector_31" d="M231.363 185.833C236.239 185.833 240.192 178.175 240.192 168.728C240.192 159.28 236.239 151.622 231.363 151.622C226.487 151.622 222.535 159.28 222.535 168.728C222.535 178.175 226.487 185.833 231.363 185.833Z" fill="url(#paint5_linear)"/>
<path id="Vector_32" d="M223.354 161.52L231.363 164.023V172.655L223.283 175.619C222.337 170.964 222.362 166.164 223.354 161.52Z" fill="url(#paint6_linear)"/>
<path id="Vector_33" d="M207.912 183.028H212.901V187.416C212.901 188.08 212.638 188.717 212.169 189.186C211.699 189.655 211.063 189.919 210.399 189.919C209.736 189.919 209.1 189.655 208.63 189.186C208.161 188.717 207.898 188.08 207.898 187.416V183.028H207.912Z" fill="#68E1FD"/>
<path id="Vector_34" d="M231.363 172.655C232.483 172.655 233.391 170.723 233.391 168.339C233.391 165.955 232.483 164.023 231.363 164.023C230.244 164.023 229.336 165.955 229.336 168.339C229.336 170.723 230.244 172.655 231.363 172.655Z" fill="#68E1FD"/>
<path id="Vector_35" d="M226.014 182.294C220.232 177.69 213.139 175.04 205.755 174.727C204.451 174.704 203.179 174.315 202.085 173.602C200.992 172.89 200.121 171.883 199.573 170.699C199.759 170.9 201.902 172.943 207.926 171.921C214.253 170.842 222.995 174.051 222.995 174.051L226.014 182.294Z" fill="url(#paint7_linear)"/>
<path id="Vector_36" d="M161.743 219.556H155.675C155.452 219.565 155.23 219.531 155.02 219.455C154.811 219.378 154.618 219.261 154.454 219.11C154.29 218.959 154.157 218.777 154.063 218.575C153.969 218.372 153.916 218.153 153.907 217.93C153.871 217.74 153.871 217.545 153.907 217.355L156.782 204.651C156.929 204.041 157.271 203.496 157.757 203.098C158.242 202.701 158.844 202.473 159.471 202.45H165.524C165.749 202.442 165.973 202.479 166.184 202.558C166.394 202.637 166.587 202.757 166.751 202.91C166.916 203.064 167.048 203.249 167.141 203.454C167.234 203.658 167.285 203.88 167.293 204.104C167.322 204.286 167.322 204.47 167.293 204.651L164.417 217.355C164.271 217.962 163.931 218.506 163.448 218.903C162.966 219.3 162.367 219.529 161.743 219.556V219.556Z" fill="#473F47"/>
<path id="Vector_37" d="M153.605 210.363C153.791 210.062 154.003 209.778 154.237 209.514C154.56 209.184 154.998 208.993 155.459 208.982C155.508 208.977 155.558 208.983 155.605 208.998C155.651 209.012 155.695 209.036 155.733 209.068C155.774 209.134 155.803 209.207 155.819 209.284C155.891 209.701 155.92 210.118 156.02 210.521C156.102 210.936 156.313 211.314 156.624 211.6C157.271 212.132 158.522 211.787 159.27 211.701L162.433 211.341C162.754 211.256 163.09 211.244 163.416 211.306C163.742 211.369 164.05 211.503 164.317 211.701C164.935 212.305 164.662 213.326 164.317 214.132C163.353 216.52 162.088 219.124 159.672 220.031C156.797 221.124 153.576 219.354 150.542 219.829C148.845 220.088 146.962 220.736 145.955 218.851C145.661 218.339 145.521 217.753 145.551 217.164C145.582 216.574 145.782 216.006 146.128 215.528C147.059 214.705 148.137 214.066 149.305 213.643C150.285 213.127 151.214 212.52 152.08 211.83C152.537 211.476 152.965 211.086 153.36 210.665L153.605 210.363Z" fill="#FCBDBA"/>
<path id="Vector_38" opacity="0.18" d="M272.457 161.52C272.426 167.203 270.145 172.641 266.113 176.644C262.08 180.646 256.627 182.885 250.947 182.87C245.267 182.854 239.826 180.586 235.815 176.562C231.804 172.539 229.552 167.088 229.552 161.405C229.552 155.722 231.804 150.271 235.815 146.247C239.826 142.223 245.267 139.955 250.947 139.94C256.627 139.925 262.08 142.163 266.113 146.166C270.145 150.168 272.426 155.607 272.457 161.29V161.52Z" fill="#68E1FD"/>
<path id="Vector_39" opacity="0.34" d="M250.328 166.066C253.854 166.066 256.712 163.206 256.712 159.678C256.712 156.15 253.854 153.291 250.328 153.291C246.803 153.291 243.944 156.15 243.944 159.678C243.944 163.206 246.803 166.066 250.328 166.066Z" fill="#68E1FD"/>
<path id="Vector_40" opacity="0.34" d="M264.232 178.496C260.27 181.607 255.345 183.233 250.31 183.091C245.276 182.949 240.45 181.049 236.669 177.719C237.632 174.77 239.523 172.211 242.059 170.425C244.595 168.639 247.641 167.721 250.741 167.808C253.841 167.896 256.829 168.983 259.261 170.91C261.692 172.836 263.436 175.497 264.232 178.496V178.496Z" fill="#68E1FD"/>
<path id="Vector_41" opacity="0.18" d="M384.767 144.673H293.823V150.241H384.767V144.673Z" fill="#68E1FD"/>
<path id="Vector_42" opacity="0.18" d="M384.767 154.557H293.823V160.124H384.767V154.557Z" fill="#68E1FD"/>
<path id="Vector_43" opacity="0.18" d="M384.767 164.44H293.823V170.008H384.767V164.44Z" fill="#68E1FD"/>
<path id="Vector_44" opacity="0.18" d="M384.767 174.324H293.823V179.892H384.767V174.324Z" fill="#68E1FD"/>
<path id="Vector_45" opacity="0.18" d="M243.93 97.9017C243.93 102.17 242.665 106.342 240.295 109.891C237.925 113.44 234.557 116.206 230.616 117.839C226.675 119.472 222.338 119.9 218.155 119.067C213.971 118.234 210.128 116.179 207.112 113.161C204.095 110.143 202.041 106.298 201.209 102.112C200.377 97.9256 200.804 93.5866 202.436 89.6433C204.069 85.7001 206.833 82.3297 210.38 79.9585C213.927 77.5872 218.097 76.3216 222.362 76.3216C228.082 76.3216 233.568 78.5952 237.613 82.6423C241.658 86.6893 243.93 92.1783 243.93 97.9017V97.9017Z" fill="#68E1FD"/>
<path id="Vector_46" opacity="0.34" d="M221.758 102.462C225.284 102.462 228.142 99.6024 228.142 96.0746C228.142 92.5467 225.284 89.6869 221.758 89.6869C218.233 89.6869 215.374 92.5467 215.374 96.0746C215.374 99.6024 218.233 102.462 221.758 102.462Z" fill="#68E1FD"/>
<path id="Vector_47" opacity="0.34" d="M235.677 114.892C231.712 118.005 226.783 119.63 221.745 119.486C216.707 119.341 211.879 117.436 208.099 114.101C209.06 111.146 210.952 108.582 213.49 106.792C216.029 105.002 219.079 104.083 222.184 104.172C225.288 104.261 228.28 105.354 230.713 107.286C233.145 109.219 234.887 111.887 235.677 114.892V114.892Z" fill="#68E1FD"/>
<path id="Vector_48" opacity="0.18" d="M356.211 81.0692H265.268V86.6369H356.211V81.0692Z" fill="#68E1FD"/>
<path id="Vector_49" opacity="0.18" d="M356.211 90.9529H265.268V96.5205H356.211V90.9529Z" fill="#68E1FD"/>
<path id="Vector_50" opacity="0.18" d="M356.211 100.822H265.268V106.39H356.211V100.822Z" fill="#68E1FD"/>
<path id="Vector_51" opacity="0.18" d="M356.211 110.706H265.268V116.274H356.211V110.706Z" fill="#68E1FD"/>
<path id="Vector_52" d="M364.493 78.4796C369.067 78.4796 372.775 74.7695 372.775 70.1928C372.775 65.6162 369.067 61.9061 364.493 61.9061C359.919 61.9061 356.211 65.6162 356.211 70.1928C356.211 74.7695 359.919 78.4796 364.493 78.4796Z" fill="#68E1FD"/>
<path id="Vector_53" d="M88.197 187.502L67.0895 155.851C66.8536 155.519 66.6861 155.143 66.5968 154.745C66.5074 154.347 66.4978 153.936 66.5687 153.534C66.6396 153.132 66.7895 152.749 67.0097 152.406C67.23 152.063 67.5161 151.767 67.8515 151.535V151.535L85.6808 139.724C86.0124 139.505 86.3837 139.354 86.7736 139.278C87.3675 139.16 87.9831 139.22 88.5433 139.45C89.1034 139.68 89.5832 140.071 89.9225 140.573L111.03 172.224C111.276 172.599 111.438 173.025 111.502 173.47C111.567 173.915 111.533 174.368 111.404 174.799C111.204 175.477 110.771 176.063 110.182 176.453L92.4243 188.351C91.7559 188.798 90.9382 188.962 90.1492 188.809C89.3602 188.655 88.6637 188.196 88.2114 187.531L88.197 187.502Z" fill="#68E1FD"/>
<path id="Vector_54" d="M88.197 187.502L67.0895 155.851C66.8536 155.519 66.6861 155.143 66.5968 154.745C66.5074 154.347 66.4978 153.936 66.5687 153.534C66.6396 153.132 66.7895 152.749 67.0097 152.406C67.23 152.063 67.5161 151.767 67.8515 151.535V151.535L85.6808 139.724C86.0124 139.505 86.3837 139.354 86.7736 139.278C87.3675 139.16 87.9831 139.22 88.5433 139.45C89.1034 139.68 89.5832 140.071 89.9225 140.573L111.03 172.224C111.276 172.599 111.438 173.025 111.502 173.47C111.567 173.915 111.533 174.368 111.404 174.799C111.204 175.477 110.771 176.063 110.182 176.453L92.4243 188.351C91.7559 188.798 90.9382 188.962 90.1492 188.809C89.3602 188.655 88.6637 188.196 88.2114 187.531L88.197 187.502Z" fill="url(#paint8_linear)"/>
<path id="Vector_55" d="M89.1604 188.97L68.0528 157.319C67.6039 156.643 67.4411 155.817 67.6001 155.021C67.7592 154.226 68.227 153.526 68.9012 153.075L86.6586 141.306C86.9901 141.088 87.3614 140.936 87.7513 140.86C88.3432 140.743 88.9564 140.804 89.514 141.034C90.0717 141.264 90.5489 141.655 90.8858 142.155L111.993 173.806C112.443 174.478 112.608 175.3 112.451 176.094C112.295 176.887 111.83 177.585 111.159 178.036L93.3877 189.876C93.051 190.095 92.6743 190.246 92.2792 190.319C91.8841 190.392 91.4785 190.387 91.0857 190.302C90.6928 190.218 90.3205 190.057 89.9901 189.828C89.6597 189.6 89.3777 189.308 89.1604 188.97V188.97Z" fill="#68E1FD"/>
<path id="Vector_56" d="M112.382 176.324L87.2481 169.404L87.7513 140.745C88.3431 140.628 88.9564 140.689 89.514 140.919C90.0717 141.149 90.5489 141.539 90.8858 142.04L111.993 173.691C112.257 174.07 112.429 174.505 112.496 174.962C112.563 175.419 112.524 175.885 112.382 176.324V176.324Z" fill="url(#paint9_linear)"/>
<path id="Vector_57" d="M87.4206 159.132L69.3325 159.175L89.1604 188.97L96.249 171.878L87.2624 169.404L87.4206 159.132Z" fill="url(#paint10_linear)"/>
</g>
<defs>
<linearGradient id="paint0_linear" x1="338.468" y1="279.218" x2="493.537" y2="382.547" gradientUnits="userSpaceOnUse">
<stop offset="0.01"/>
<stop offset="0.08" stop-opacity="0.69"/>
<stop offset="0.21" stop-opacity="0.32"/>
<stop offset="1" stop-opacity="0"/>
</linearGradient>
<linearGradient id="paint1_linear" x1="21753.5" y1="-6911.96" x2="27513.1" y2="-21322.5" gradientUnits="userSpaceOnUse">
<stop offset="0.01"/>
<stop offset="0.08" stop-opacity="0.69"/>
<stop offset="0.21" stop-opacity="0.32"/>
<stop offset="1" stop-opacity="0"/>
</linearGradient>
<linearGradient id="paint2_linear" x1="52295.8" y1="7155.73" x2="44143.2" y2="17421.1" gradientUnits="userSpaceOnUse">
<stop offset="0.01"/>
<stop offset="0.08" stop-opacity="0.69"/>
<stop offset="0.21" stop-opacity="0.32"/>
<stop offset="1" stop-opacity="0"/>
</linearGradient>
<linearGradient id="paint3_linear" x1="2016.38" y1="-5200.15" x2="3333.27" y2="-4709.54" gradientUnits="userSpaceOnUse">
<stop offset="0.01"/>
<stop offset="0.08" stop-opacity="0.69"/>
<stop offset="0.21" stop-opacity="0.32"/>
<stop offset="1" stop-opacity="0"/>
</linearGradient>
<linearGradient id="paint4_linear" x1="163.368" y1="223.296" x2="154.774" y2="180.368" gradientUnits="userSpaceOnUse">
<stop offset="0.01" stop-color="white"/>
<stop offset="1" stop-color="white" stop-opacity="0"/>
</linearGradient>
<linearGradient id="paint5_linear" x1="2851.96" y1="-6813.87" x2="4312.45" y2="-6451.62" gradientUnits="userSpaceOnUse">
<stop offset="0.01"/>
<stop offset="0.08" stop-opacity="0.69"/>
<stop offset="0.21" stop-opacity="0.32"/>
<stop offset="1" stop-opacity="0"/>
</linearGradient>
<linearGradient id="paint6_linear" x1="1502.7" y1="-2652.7" x2="2117.52" y2="-2517.54" gradientUnits="userSpaceOnUse">
<stop offset="0.01"/>
<stop offset="0.08" stop-opacity="0.69"/>
<stop offset="0.21" stop-opacity="0.32"/>
<stop offset="1" stop-opacity="0"/>
</linearGradient>
<linearGradient id="paint7_linear" x1="4449.59" y1="-1842.13" x2="4446.74" y2="-2217.7" gradientUnits="userSpaceOnUse">
<stop offset="0.01"/>
<stop offset="0.08" stop-opacity="0.69"/>
<stop offset="0.21" stop-opacity="0.32"/>
<stop offset="1" stop-opacity="0"/>
</linearGradient>
<linearGradient id="paint8_linear" x1="70853.7" y1="23978.5" x2="69068.9" y2="21878.6" gradientUnits="userSpaceOnUse">
<stop offset="0.01"/>
<stop offset="0.08" stop-opacity="0.69"/>
<stop offset="0.21" stop-opacity="0.32"/>
<stop offset="1" stop-opacity="0"/>
</linearGradient>
<linearGradient id="paint9_linear" x1="39680.4" y1="8321.33" x2="38109.6" y2="8926.57" gradientUnits="userSpaceOnUse">
<stop offset="0.01" stop-color="white"/>
<stop offset="1" stop-color="white" stop-opacity="0"/>
</linearGradient>
<linearGradient id="paint10_linear" x1="33863.9" y1="10844" x2="32299.5" y2="13312.6" gradientUnits="userSpaceOnUse">
<stop offset="0.01"/>
<stop offset="0.08" stop-opacity="0.69"/>
<stop offset="0.21" stop-opacity="0.32"/>
<stop offset="1" stop-opacity="0"/>
</linearGradient>
<clipPath id="clip0">
<rect width="545" height="411" fill="white"/>
</clipPath>
</defs>
</svg>
