<svg width="40" height="32" viewBox="0 0 40 32" fill="none" xmlns="http://www.w3.org/2000/svg">
<g id="Logo">
<path id="Vector" d="M1.04384 7.79147C0.801939 7.84254 0.579311 7.96072 0.401503 8.13246C0.223694 8.3042 0.097899 8.52256 0.0385163 8.76249C-0.0208663 9.00242 -0.0114299 9.25423 0.0657572 9.48904C0.142944 9.72386 0.284758 9.93218 0.474931 10.0901L6.26057 14.8958C6.34514 14.9673 6.41499 15.0546 6.46626 15.1528C6.51397 15.252 6.54078 15.3599 6.54506 15.4698L6.90623 24.2833C6.91275 24.5716 7.01606 24.8494 7.19958 25.072C7.38309 25.2946 7.63614 25.449 7.91804 25.5105L7.92829 25.5128C8.20677 25.5808 8.50001 25.5538 8.76132 25.4359C9.02263 25.3181 9.23699 25.1162 9.37028 24.8625L11.4572 21.0578C11.5272 20.9325 11.6299 20.8286 11.7544 20.7573C11.8789 20.6859 12.0204 20.6497 12.1639 20.6526C12.2695 20.6531 12.3738 20.6755 12.4703 20.7183C12.5668 20.7611 12.6534 20.8235 12.7246 20.9014L22.7394 31.5843C22.8839 31.7394 23.0639 31.857 23.2641 31.9269C23.4642 31.9968 23.6784 32.017 23.888 31.9857C24.097 31.9546 24.2955 31.8737 24.4668 31.7499C24.638 31.6261 24.777 31.463 24.872 31.2743L39.5563 1.90414C39.6674 1.68302 39.7137 1.43505 39.69 1.18877C39.6664 0.942481 39.5737 0.70787 39.4226 0.511917C39.2715 0.315964 39.0681 0.166625 38.8359 0.0810755C38.6036 -0.00447459 38.352 -0.0227637 38.1098 0.0283139L37.6343 0.127674L1.04384 7.79147ZM0.809361 9.68649C0.695413 9.59142 0.610536 9.4662 0.564466 9.32515C0.518397 9.18411 0.512988 9.03295 0.548857 8.88897C0.584725 8.745 0.660421 8.61403 0.76728 8.51106C0.87414 8.4081 1.00784 8.33729 1.15308 8.30675L37.7321 0.645727L38.2189 0.543584C38.364 0.513714 38.5145 0.525171 38.6534 0.576655C38.7922 0.628139 38.9138 0.717578 39.0043 0.834781C39.0948 0.951984 39.1505 1.09224 39.1652 1.23956C39.1798 1.38689 39.1527 1.53537 39.0871 1.66808L24.4028 31.0383C24.3458 31.1517 24.2623 31.2497 24.1594 31.3239C24.0564 31.3981 23.9371 31.4464 23.8115 31.4647C23.6858 31.4829 23.5577 31.4706 23.4378 31.4287C23.318 31.3869 23.21 31.3167 23.1231 31.2242L13.1085 20.5413C13.0107 20.4345 12.8951 20.3453 12.7669 20.2777L38.2137 1.82244C38.3137 1.75138 38.3858 1.64759 38.4174 1.52903C38.4491 1.41047 38.4383 1.28458 38.3869 1.17315C38.3355 1.06171 38.2467 0.971739 38.136 0.918781C38.0253 0.865824 37.8995 0.853216 37.7805 0.883136C37.7513 0.890071 37.7229 0.899847 37.6957 0.912326L6.79841 14.7001C6.73862 14.6234 6.67037 14.5536 6.59497 14.4922L0.809361 9.68649Z" fill="#005B74"/>
<path id="Vector_2" d="M1.04384 7.79147C0.801939 7.84254 0.579311 7.96072 0.401503 8.13246C0.223694 8.3042 0.097899 8.52256 0.0385163 8.76249C-0.0208663 9.00242 -0.0114299 9.25423 0.0657572 9.48904C0.142944 9.72386 0.284758 9.93218 0.474931 10.0901L6.26057 14.8958C6.34514 14.9673 6.41499 15.0546 6.46626 15.1528C6.51397 15.252 6.54078 15.3599 6.54506 15.4698L6.90623 24.2833C6.91275 24.5716 7.01606 24.8494 7.19958 25.072C7.38309 25.2946 7.63614 25.449 7.91804 25.5105L7.92829 25.5128C8.20677 25.5808 8.50001 25.5538 8.76132 25.4359C9.02263 25.3181 9.23699 25.1162 9.37028 24.8625L11.4572 21.0578C11.5272 20.9325 11.6299 20.8286 11.7544 20.7573C11.8789 20.6859 12.0204 20.6497 12.1639 20.6526C12.2695 20.6531 12.3738 20.6755 12.4703 20.7183C12.5668 20.7611 12.6534 20.8235 12.7246 20.9014L22.7394 31.5843C22.8839 31.7394 23.0639 31.857 23.2641 31.9269C23.4642 31.9968 23.6784 32.017 23.888 31.9857C24.097 31.9546 24.2955 31.8737 24.4668 31.7499C24.638 31.6261 24.777 31.463 24.872 31.2743L39.5563 1.90414C39.6674 1.68302 39.7137 1.43505 39.69 1.18877C39.6664 0.942481 39.5737 0.70787 39.4226 0.511917C39.2715 0.315964 39.0681 0.166625 38.8359 0.0810755C38.6036 -0.00447459 38.352 -0.0227637 38.1098 0.0283139L37.6343 0.127674L1.04383 7.79146L1.04384 7.79147ZM0.809361 9.68649C0.695413 9.59142 0.610536 9.4662 0.564466 9.32515C0.518397 9.18411 0.512988 9.03295 0.548857 8.88897C0.584725 8.745 0.660421 8.61403 0.76728 8.51106C0.87414 8.4081 1.00784 8.33729 1.15308 8.30675L37.7321 0.645727L38.2189 0.543584C38.364 0.513714 38.5145 0.525171 38.6534 0.576655C38.7922 0.628139 38.9138 0.717578 39.0043 0.834781C39.0948 0.951984 39.1505 1.09224 39.1652 1.23956C39.1798 1.38689 39.1527 1.53537 39.0871 1.66808L24.4028 31.0382C24.3458 31.1517 24.2623 31.2496 24.1594 31.3239C24.0564 31.3981 23.9371 31.4464 23.8114 31.4647C23.6858 31.4829 23.5576 31.4706 23.4378 31.4287C23.318 31.3869 23.21 31.3167 23.1231 31.2242L13.1085 20.5413C13.0106 20.4345 12.8951 20.3453 12.7669 20.2777C12.5835 20.1794 12.3788 20.1272 12.1706 20.1259C12.1413 20.1246 12.1114 20.1259 12.0813 20.1272L12.0788 20.1266C11.8556 20.1382 11.6391 20.2065 11.4498 20.3253C11.2605 20.444 11.1047 20.6091 10.9972 20.8049L8.90969 24.6122C8.82996 24.7651 8.70093 24.8865 8.54351 24.9568C8.38609 25.0272 8.20952 25.0423 8.04242 24.9998L8.03729 24.9986C7.86767 24.9629 7.71524 24.8706 7.60508 24.7368C7.49491 24.603 7.43357 24.4358 7.43113 24.2625L7.07008 15.4491C7.06721 15.3559 7.05386 15.2634 7.03031 15.1733L7.0309 15.1707C7.00859 15.0841 6.97712 15.0002 6.93704 14.9203C6.8988 14.8422 6.85233 14.7684 6.79841 14.7001C6.73862 14.6234 6.67038 14.5536 6.59499 14.4922L0.809361 9.68651V9.68649Z" fill="#3F3D56"/>
<path id="Vector_3" d="M6.79842 14.7001L37.6957 0.912326C37.7229 0.899848 37.7513 0.89007 37.7805 0.883133C37.8995 0.853211 38.0253 0.86582 38.136 0.918778C38.2468 0.971735 38.3355 1.06171 38.3868 1.17314C38.4382 1.28458 38.4491 1.41046 38.4175 1.52903C38.3858 1.64759 38.3137 1.75138 38.2137 1.82244L12.7669 20.2777L12.3179 20.6041L12.0105 20.1784L12.0789 20.1266L12.0814 20.1272L37.9037 1.39625L7.03092 15.1707L7.03032 15.1733L6.89582 15.2316L6.68152 14.7517L6.79842 14.7001Z" fill="#3F3D56"/>
</g>
</svg>
