<svg width="388" height="308" viewBox="0 0 388 308" fill="none" xmlns="http://www.w3.org/2000/svg">
<path opacity="0.18" d="M77.5968 45.7898C104.773 41.8443 132.754 44.5619 159.698 39.1468C187.88 33.4802 213.547 19.2179 240.712 9.7466C267.878 0.275313 299.251 -3.98224 324.454 9.89757C339.884 18.4026 351.237 32.8058 360.145 48.0444C377.702 78.0957 387.218 112.165 387.774 146.964C388.025 164.216 386.023 181.589 380.728 198.015C363.034 252.91 309.477 290.906 253.002 302.622C190.98 315.495 123.544 299.803 73.4601 261.043C30.8141 227.979 -11.3588 169.027 3.10482 115.33C12.6969 79.6187 36.8532 51.7081 77.5968 45.7898Z" fill="#68E1FD"/>
<path d="M290.776 192.801L259.836 215.699C259.178 216.186 258.353 216.391 257.544 216.27C256.734 216.149 256.006 215.712 255.518 215.055L242.685 197.713C242.443 197.39 242.272 197.019 242.182 196.626C242.031 196.034 242.06 195.411 242.264 194.836C242.469 194.261 242.839 193.759 243.329 193.395L274.279 170.497C274.645 170.228 275.065 170.042 275.511 169.954C275.956 169.865 276.415 169.875 276.856 169.983C277.551 170.161 278.165 170.569 278.597 171.141L291.43 188.493C291.67 188.819 291.844 189.189 291.941 189.582C292.038 189.975 292.057 190.383 291.996 190.783C291.935 191.183 291.796 191.567 291.587 191.913C291.378 192.26 291.102 192.561 290.776 192.801V192.801Z" fill="#68E1FD"/>
<path d="M276.856 169.983L271.129 195.71L242.182 196.626C242.031 196.034 242.06 195.411 242.264 194.836C242.469 194.261 242.839 193.759 243.329 193.395L274.279 170.497C274.645 170.228 275.065 170.042 275.511 169.954C275.956 169.865 276.415 169.875 276.856 169.983V169.983Z" fill="url(#paint0_linear)"/>
<path d="M260.742 196.042L261.688 214.32L290.776 192.801L273.172 186.51L271.129 195.71L260.742 196.042Z" fill="url(#paint1_linear)"/>
<path d="M296.533 46.4138L261.97 95.6625L255.327 77.2333C232.387 83.3263 209.803 90.6886 187.679 99.286C162.174 109.442 137.615 122.063 130.559 135.108C114.385 165.072 152.381 178.317 152.381 178.317C145.152 178.895 137.883 178.72 130.69 177.794C111.738 175.308 88.2054 166.128 95.0195 135.108C100.404 110.599 135.461 89.9858 169.904 75.3008H169.954C174.987 73.1669 180.02 71.164 184.911 69.2617L185.052 69.2013C203.478 62.156 222.27 56.1082 241.346 51.084L238.035 34.9597L296.533 46.4138Z" fill="#68E1FD"/>
<path d="M130.56 135.108C114.385 165.072 152.381 178.317 152.381 178.317C145.152 178.895 137.883 178.72 130.69 177.794C127.842 174.479 125.181 171.008 122.719 167.397C100.908 135.671 147.69 110.67 147.69 110.67C151.586 96.4476 169.904 84.6815 169.904 84.6815V75.3008H169.954L184.911 69.2617L185.052 69.2013L188.343 96.6992L187.679 99.2658C162.174 109.442 137.615 122.063 130.56 135.108Z" fill="url(#paint2_linear)"/>
<path d="M236.626 238.577C235.705 240.144 235.134 241.892 234.955 243.7C234.986 245.511 235.573 247.267 236.636 248.733C238.82 251.973 242.169 254.248 245.986 255.084C246.486 255.237 247.023 255.212 247.506 255.014C247.837 254.811 248.095 254.507 248.241 254.148C249.157 252.286 248.784 250.072 248.181 248.109C247.577 246.146 246.751 244.153 246.842 242.07C246.993 238.175 252.559 230.656 246.077 228.824C240.672 227.254 238.347 235.105 236.626 238.577Z" fill="#B2857F"/>
<path d="M232.821 243.66C232.821 243.66 230.909 245.23 231.271 246.962C231.633 248.693 238.508 260.761 248.301 259.382C258.095 258.003 242.011 248.31 242.011 248.31L232.821 243.66Z" fill="#68E1FD"/>
<path d="M235.78 239.201C236.182 239.216 236.564 239.374 236.858 239.648C237.152 239.922 237.337 240.292 237.381 240.691C237.636 241.841 238.181 242.906 238.963 243.787C239.745 244.667 240.738 245.334 241.85 245.723C244.406 246.418 246.741 244.284 247.889 244.888C249.036 245.492 252.257 253.896 251.412 256.292C250.566 258.687 246.6 258.627 243.078 256.986C239.555 255.346 233.133 248.793 232.64 246.207C232.147 243.62 234.381 239.896 235.78 239.201Z" fill="white"/>
<path d="M195.097 252.497C194.147 254.283 193.598 256.255 193.487 258.275C193.625 260.268 194.362 262.172 195.6 263.74C198.185 267.243 202.021 269.615 206.31 270.363C206.87 270.511 207.465 270.458 207.991 270.212C208.345 269.96 208.618 269.61 208.776 269.205C209.702 267.092 209.168 264.646 208.413 262.472C207.658 260.298 206.652 258.154 206.612 255.859C206.612 251.531 212.419 242.885 205.132 241.164C199.043 239.725 196.828 248.562 195.097 252.497Z" fill="#B2857F"/>
<path d="M191.101 258.406C191.101 258.406 189.088 260.247 189.541 262.15C189.994 264.052 198.227 277.147 209.057 275.134C219.887 273.121 201.549 263.207 201.549 263.207L191.101 258.406Z" fill="#68E1FD"/>
<path d="M194.171 253.252C194.621 253.247 195.058 253.406 195.4 253.698C195.743 253.991 195.967 254.397 196.033 254.843C196.37 256.105 197.025 257.259 197.936 258.195C198.847 259.131 199.984 259.817 201.237 260.187C204.115 260.831 206.622 258.365 207.89 258.969C209.158 259.573 213.184 268.783 212.339 271.47C211.493 274.158 207.095 274.298 203.099 272.648C199.103 270.997 191.645 264.012 191.021 261.163C190.397 258.315 192.651 254.098 194.171 253.252Z" fill="white"/>
<path d="M216.808 147.528C217.081 147.576 217.351 147.647 217.613 147.739C223.974 150.155 231.634 160.925 235.962 166.038C241.588 172.513 246.271 179.751 249.872 187.537C257.179 203.853 257.853 224.124 247.587 238.758L239.696 237.108C239.007 237.031 238.357 236.747 237.834 236.292C237.564 235.898 237.378 235.452 237.287 234.983C237.195 234.515 237.199 234.032 237.3 233.565C237.717 227.928 237.457 222.261 236.525 216.686C236.004 212.864 234.833 209.161 233.063 205.735C230.587 201.276 226.681 197.824 222.877 194.442C210.799 183.742 199.969 172.681 193.98 157.553C199.385 154.896 210.98 146.501 216.808 147.528Z" fill="#473F47"/>
<path d="M198.529 155.741C198.79 155.845 199.037 155.98 199.264 156.144C204.89 159.969 209.832 172.248 212.852 178.207C216.807 185.821 219.673 193.952 221.367 202.363C224.658 219.927 220.602 239.795 207.205 251.682L199.908 248.23C199.259 247.994 198.694 247.57 198.288 247.012C198.119 246.563 198.042 246.085 198.063 245.605C198.084 245.126 198.201 244.656 198.409 244.224C200.13 238.839 201.198 233.266 201.589 227.626C201.975 223.79 201.699 219.915 200.774 216.172C199.415 211.271 196.416 207.003 193.507 202.816C184.297 189.61 176.306 176.314 174.011 160.21C179.879 158.882 193.114 153.426 198.529 155.741Z" fill="#473F47"/>
<path d="M231.311 117.403C231.316 117.447 231.316 117.491 231.311 117.534C231.402 119.215 231.956 120.694 231.523 122.406C231.06 124.308 229.288 126.029 227.356 125.747C225.745 125.516 224.648 124.066 223.41 123.009C222.115 121.972 220.678 121.125 219.143 120.493C217.13 119.557 215.056 118.681 212.983 117.876C211.654 117.353 209.118 117.031 208.554 115.672C207.991 114.313 208.172 112.169 208.011 110.73L205.504 87.8922L228.825 107.016C229.782 109.107 230.527 111.289 231.05 113.528C231.272 114.807 231.36 116.106 231.311 117.403V117.403Z" fill="white"/>
<path d="M213.999 119.919C214.14 121.268 214.452 122.607 214.613 123.946C215.459 131.384 214.543 139.265 217.562 146.32C218.247 147.89 219.133 149.561 218.73 151.232C218.238 152.648 217.247 153.836 215.942 154.574C209.782 158.882 202.304 160.804 195.017 162.626C189.531 164.015 181.811 166.541 176.336 164.105C174.001 163.099 172.994 160.764 172.038 158.469C169.018 151.162 167.428 143.11 165.999 135.319C165.818 134.313 165.626 133.306 165.455 132.249C164.268 125.224 163.338 118.138 162.667 110.992C162.204 105.798 161.993 100.162 164.952 95.894C168.877 90.1972 177.191 85.8289 183.663 83.8159C185.756 83.1421 187.937 82.7792 190.135 82.7389C193.267 82.8853 196.351 83.5661 199.254 84.7519C202.706 86.0101 205.776 87.0568 207.739 90.1166C209.915 93.6711 211.582 97.5131 212.691 101.53C213.735 105.292 214.254 109.181 214.231 113.085C214.231 114.998 213.969 116.93 213.979 118.832C213.948 119.194 213.954 119.559 213.999 119.919V119.919Z" fill="white"/>
<path opacity="0.1" d="M188.233 165.414C186.139 166.29 180.946 164.85 179.265 164.74C178.258 164.679 177.252 164.277 176.245 164.156C171.213 163.461 169.069 149.672 168.193 146.039C165.838 136.326 162.758 126.341 161.53 116.477C161.067 112.663 160.735 108.767 161.59 105.033C162.446 101.299 164.61 97.6957 168.082 95.9746C174.121 93.0155 178.198 112.733 179.516 116.759C181.167 121.792 182.828 126.824 184.468 131.857C185.193 134.111 185.425 136.618 186.663 138.681C188.545 141.811 190.135 141.217 193.285 140.694C199.898 139.547 206.078 136.738 212.59 135.168C212.858 135.068 213.143 135.024 213.429 135.037C213.715 135.051 213.994 135.123 214.251 135.249C214.602 135.537 214.841 135.94 214.925 136.386C215.309 137.657 215.519 138.974 215.549 140.301C215.588 140.681 215.532 141.065 215.388 141.419C215.161 141.78 214.846 142.078 214.472 142.284C210.071 145.196 205.237 147.394 200.15 148.796C196.124 149.924 192.309 151.816 189.591 155.178C187.146 158.197 190.326 161.378 188.998 164.649C188.928 164.821 188.825 164.978 188.693 165.11C188.562 165.241 188.405 165.345 188.233 165.414V165.414Z" fill="#020202"/>
<path d="M183.643 150.206L222.233 137.191L250.536 153.336L211.151 169.48L183.643 150.206Z" fill="#68E1FD"/>
<path d="M183.643 150.206L222.233 137.191L250.536 153.336L211.151 169.48L183.643 150.206Z" fill="url(#paint3_linear)"/>
<path d="M185.233 148.122L223.823 135.108L252.126 151.252L212.741 167.397L185.233 148.122Z" fill="#68E1FD"/>
<path d="M214.634 165.172L246.56 151.071L230.979 142.516L199.234 154.533L214.634 165.172Z" fill="url(#paint4_linear)"/>
<path d="M212.741 167.397H250.798L283.559 146.995L252.126 151.252L212.741 167.397Z" fill="#68E1FD"/>
<path d="M199.757 73.8816C199.365 75.3008 198.942 76.72 198.489 78.1291C197.483 81.35 195.47 84.289 191.967 85.064C191.193 85.213 190.409 85.3071 189.622 85.3458C189.471 85.3458 189.3 85.3458 189.098 85.3458C189.087 85.3512 189.075 85.3539 189.063 85.3539C189.051 85.3539 189.039 85.3512 189.028 85.3458H188.937C188.544 85.3273 188.151 85.368 187.77 85.4666C187.663 85.4721 187.56 85.5032 187.468 85.5572C186.461 86.0202 186.542 87.6507 186.612 88.5767C186.86 89.6185 186.739 90.7141 186.27 91.6768C186.27 91.6768 186.27 91.7372 186.21 91.7774C185.931 92.0818 185.594 92.3275 185.219 92.5003C184.844 92.6731 184.438 92.7695 184.025 92.7839C182.29 92.9242 180.566 92.3988 179.204 91.3144C178.425 90.5907 177.798 89.7179 177.362 88.7478C177.226 88.4721 177.111 88.186 177.02 87.8923C176.906 87.3942 176.862 86.8827 176.889 86.3725C176.908 85.5898 176.982 84.8095 177.111 84.0373C177.482 82.5135 177.774 80.9715 177.986 79.4175C178 78.6301 178.053 77.844 178.147 77.0622C178.276 76.5627 178.37 76.0549 178.429 75.5424C178.429 74.0628 177.674 72.6336 177.664 71.1339C177.651 69.6508 177.789 68.1702 178.077 66.7153C178.614 63.8293 179.871 61.1255 181.731 58.8544C185.183 54.8283 191.303 52.8153 196.114 55.1102C198.518 56.2573 200.383 58.2923 201.317 60.7869C202.928 65.0243 200.915 69.7449 199.757 73.8816Z" fill="#B2857F"/>
<path d="M194.745 146.542C195.59 146.441 196.446 146.351 197.291 146.28C197.796 146.209 198.309 146.24 198.801 146.371C199.043 146.434 199.264 146.561 199.441 146.737C199.618 146.914 199.744 147.135 199.808 147.377C199.802 147.561 199.84 147.744 199.918 147.911C200.047 148.06 200.226 148.156 200.422 148.182C203.441 148.967 206.561 150.195 208.363 152.681C208.577 152.917 208.727 153.204 208.798 153.514C208.868 153.825 208.857 154.148 208.766 154.453C208.353 155.298 207.145 155.178 206.239 154.926C206.369 155.112 206.439 155.333 206.439 155.56C206.439 155.787 206.369 156.008 206.239 156.194C206.104 156.377 205.925 156.524 205.72 156.622C205.515 156.72 205.289 156.767 205.062 156.758C204.762 156.703 204.455 156.703 204.156 156.758C203.95 156.853 203.76 156.979 203.592 157.13C203.168 157.41 202.692 157.601 202.191 157.691C201.691 157.781 201.178 157.768 200.683 157.654C199.677 157.503 198.67 157.16 197.664 157.08C196.104 156.959 194.705 157.472 193.255 156.838C191.657 156.047 189.967 155.459 188.223 155.087C187.668 154.998 187.156 154.733 186.763 154.332C186.594 153.991 186.506 153.616 186.506 153.235C186.506 152.854 186.594 152.479 186.763 152.138C187.024 150.903 187.493 149.722 188.152 148.645C189.008 147.438 190.437 147.226 191.836 146.985C192.863 146.814 193.779 146.683 194.745 146.542Z" fill="#B2857F"/>
<path d="M164.932 95.8839C157.534 108.133 150.227 122.325 148.123 136.597C147.57 140.352 147.268 144.78 149.029 148.303C151.908 154.04 161.701 155.157 167.337 155.731C174.087 156.415 180.883 156.506 187.649 156.003C187.797 156.031 187.95 156.022 188.093 155.977C188.237 155.932 188.367 155.852 188.473 155.745C188.578 155.637 188.656 155.505 188.698 155.361C188.74 155.216 188.747 155.063 188.716 154.916L188.998 148.404C189.044 148.1 189.002 147.789 188.877 147.508C188.7 147.303 188.478 147.142 188.228 147.039C187.978 146.936 187.707 146.893 187.438 146.914C183.495 146.598 179.622 145.699 175.943 144.247C172.451 142.858 165.626 139.214 166.12 134.625C166.391 132.048 169.22 128.908 170.619 126.874C173.98 121.993 177.604 117.262 181.308 112.632C181.308 112.632 181.67 86.2919 164.932 95.8839Z" fill="white"/>
<path d="M198.6 67.9634C199.1 67.8475 199.571 67.6271 199.98 67.3166C200.39 67.0061 200.729 66.6125 200.975 66.1617C201.388 67.3192 203.34 66.9669 203.834 65.8295C204.327 64.6922 203.834 63.4038 203.391 62.2665C203.853 62.1576 204.281 61.9353 204.636 61.6195C204.991 61.3038 205.261 60.9046 205.423 60.458C205.585 60.0115 205.633 59.5316 205.563 59.0618C205.493 58.5921 205.307 58.1472 205.021 57.7674C204.689 57.395 204.226 57.0729 204.136 56.5696C204.114 56.1861 204.172 55.8022 204.307 55.4423C204.37 54.8515 204.275 54.2545 204.033 53.7118C203.791 53.1692 203.41 52.7002 202.928 52.3523C201.938 51.6698 200.833 51.172 199.667 50.8828C199.98 50.3734 200.097 49.7672 199.995 49.1779C199.893 48.5886 199.579 48.0567 199.113 47.6821C198.159 46.9534 197.002 46.5384 195.802 46.4944C194.06 46.3032 192.138 46.3837 190.769 47.5009C189.834 46.9208 188.733 46.6692 187.639 46.7859C186.545 46.9026 185.521 47.3809 184.73 48.1451C184.449 48.5349 184.056 48.8298 183.603 48.9906C183.279 49.014 182.954 48.9587 182.657 48.8295C181.388 48.2868 179.983 48.1429 178.631 48.4169C177.954 48.5781 177.363 48.9869 176.974 49.5627C176.584 50.1385 176.425 50.8394 176.527 51.527C176.027 51.587 175.558 51.7986 175.182 52.1333C174.806 52.4679 174.541 52.9096 174.423 53.3991C174.4 53.7061 174.304 54.0031 174.142 54.2647C173.85 54.6069 173.336 54.5868 172.904 54.6271C172.078 54.699 171.31 55.0797 170.753 55.6931C170.196 56.3065 169.89 57.1076 169.898 57.9362C169.906 58.7649 170.226 59.5602 170.794 60.1632C171.362 60.7663 172.137 61.1328 172.964 61.1895C172.869 61.5939 172.858 62.0136 172.933 62.4223C173.007 62.8311 173.165 63.22 173.397 63.5649C173.93 64.4204 174.645 64.4808 175.349 65.0143C175.762 65.3364 175.601 65.3665 175.581 66.0208C175.561 66.6228 175.591 67.2255 175.671 67.8224C175.809 68.9723 176.096 70.0991 176.527 71.1741C176.829 71.9491 177.211 72.694 177.483 73.479C177.858 74.6815 178.107 75.9193 178.228 77.1729L179.929 72.3618C179.948 72.2961 179.948 72.2263 179.929 72.1605C179.895 72.0712 179.831 71.9965 179.748 71.9491C179.006 71.3711 178.484 70.5571 178.268 69.6419C178.052 68.7267 178.155 67.7652 178.56 66.9166C178.673 66.6504 178.853 66.4179 179.082 66.2416C179.311 66.0653 179.582 65.9511 179.869 65.9101C180.553 65.9101 181.076 66.5039 181.409 67.0977C181.762 67.7304 182.029 68.4074 182.204 69.1108C182.664 68.0094 183.3 66.9897 184.086 66.0912C184.418 65.7188 184.821 65.0847 185.354 65.276C185.888 65.4672 186.139 66.4335 186.361 66.7857C187.154 66.4773 187.876 66.0117 188.484 65.4169C188.414 66.1154 188.546 66.8193 188.863 67.4455C189.181 68.0716 189.671 68.5936 190.276 68.9497C191.544 69.5436 193.386 68.6981 193.386 67.289C193.386 67.9231 196.134 66.8562 196.335 66.7354C196.547 67.1423 196.876 67.4765 197.28 67.6953C197.683 67.9141 198.143 68.0074 198.6 67.9634Z" fill="#473F47"/>
<path d="M185.324 85.396C186.135 85.5024 186.953 85.5361 187.77 85.4967C187.663 85.5022 187.56 85.5333 187.468 85.5873C186.461 86.0503 186.542 87.6808 186.612 88.6068C186.86 89.6487 186.739 90.7442 186.27 91.7069C185.957 91.7093 185.644 91.6652 185.344 91.576C185.036 91.4674 184.752 91.2999 184.509 91.0828C183.596 90.3314 182.928 89.3245 182.591 88.1913C182.254 87.058 182.263 85.8499 182.616 84.7217C183.488 85.0569 184.397 85.2834 185.324 85.396V85.396Z" fill="#96625E"/>
<path d="M225.212 104.067C225.212 104.067 243.641 117.665 241.095 131.243C238.729 143.874 236.606 153.919 236.606 153.919L227.98 148.887C227.98 148.887 233.747 129.854 221.709 121.58C209.671 113.307 225.212 104.067 225.212 104.067Z" fill="white"/>
<path d="M226.45 148.696L225.625 152.973C225.479 153.515 225.459 154.083 225.564 154.634C225.62 154.909 225.766 155.158 225.98 155.34C226.193 155.523 226.461 155.628 226.742 155.641C227.346 155.641 227.859 154.976 228.463 155.097C228.679 155.161 228.883 155.26 229.067 155.389C230.355 156.094 231.915 155.389 233.274 154.755C233.491 154.633 233.743 154.587 233.989 154.624C234.281 154.705 234.462 154.996 234.713 155.178C234.965 155.329 235.256 155.4 235.549 155.382C235.842 155.364 236.123 155.258 236.354 155.077C236.81 154.698 237.157 154.205 237.361 153.648C237.902 152.457 238.137 151.15 238.044 149.846C237.951 148.541 237.533 147.281 236.827 146.179C236.055 145.225 235.04 144.495 233.889 144.066C232.738 143.638 231.493 143.526 230.285 143.744C227.668 144.156 226.923 146.21 226.45 148.696Z" fill="#B2857F"/>
<path d="M211.151 169.48H249.207L281.969 149.078L250.536 153.336L211.151 169.48Z" fill="#68E1FD"/>
<path d="M212.741 167.397L211.151 169.48H249.207L250.798 167.397H212.741Z" fill="url(#paint5_linear)"/>
<path d="M283.56 146.995L281.969 149.078L249.207 169.48L250.798 167.397L283.56 146.995Z" fill="#68E1FD"/>
<path d="M283.56 146.995L281.969 149.078L249.207 169.48L250.798 167.397L283.56 146.995Z" fill="url(#paint6_linear)"/>
<path d="M252.509 152.158L278.537 148.525L251.391 165.172L221.77 165.686L252.509 152.158Z" fill="white"/>
<path d="M208.162 149.903L222.897 144.438L215.791 139.245L200.673 144.438L208.162 149.903Z" fill="url(#paint7_linear)"/>
<path d="M176.628 206.238L118.159 232.931C116.915 233.498 115.497 233.548 114.216 233.071C112.934 232.593 111.895 231.627 111.325 230.384L96.3683 197.612C96.0821 197.004 95.9278 196.342 95.9153 195.67C95.8765 194.648 96.143 193.638 96.6808 192.768C97.2186 191.899 98.0034 191.21 98.9349 190.788L157.403 164.095C158.096 163.784 158.849 163.628 159.609 163.638C160.369 163.648 161.117 163.825 161.802 164.156C162.878 164.676 163.74 165.555 164.237 166.642L179.174 199.424C179.454 200.039 179.611 200.702 179.635 201.377C179.658 202.053 179.549 202.726 179.312 203.358C179.076 203.991 178.717 204.571 178.256 205.065C177.796 205.559 177.242 205.958 176.628 206.238V206.238Z" fill="#68E1FD"/>
<path d="M176.628 206.238L118.159 232.931C116.915 233.498 115.497 233.548 114.216 233.071C112.934 232.593 111.895 231.627 111.325 230.384L96.3683 197.612C96.0821 197.004 95.9278 196.342 95.9153 195.67C95.8765 194.648 96.143 193.638 96.6808 192.768C97.2186 191.899 98.0034 191.21 98.9349 190.788L157.403 164.095C158.096 163.784 158.849 163.628 159.609 163.638C160.369 163.648 161.117 163.825 161.802 164.156C162.878 164.676 163.74 165.555 164.237 166.642L179.174 199.424C179.454 200.039 179.611 200.702 179.635 201.377C179.658 202.053 179.549 202.726 179.312 203.358C179.076 203.991 178.717 204.571 178.256 205.065C177.796 205.559 177.242 205.958 176.628 206.238V206.238Z" fill="url(#paint8_linear)"/>
<path d="M179.335 205.06L120.867 231.753C119.623 232.32 118.204 232.37 116.923 231.893C115.642 231.415 114.602 230.449 114.033 229.207L99.0758 196.445C98.7932 195.835 98.6358 195.174 98.6128 194.502C98.5759 193.48 98.8431 192.469 99.3806 191.598C99.9181 190.728 100.702 190.036 101.632 189.61L160.101 162.928C161.344 162.363 162.76 162.313 164.04 162.788C165.321 163.263 166.361 164.225 166.935 165.464L181.892 198.246C182.172 198.862 182.328 199.526 182.351 200.201C182.374 200.877 182.263 201.55 182.026 202.183C181.788 202.816 181.428 203.396 180.967 203.89C180.505 204.383 179.951 204.781 179.335 205.06V205.06Z" fill="#68E1FD"/>
<path d="M164.479 162.928L146.221 202.967L98.6128 194.452C98.5759 193.429 98.8431 192.419 99.3806 191.548C99.9181 190.677 100.702 189.985 101.632 189.56L160.101 162.877C160.789 162.563 161.539 162.405 162.295 162.413C163.052 162.422 163.798 162.598 164.479 162.928Z" fill="url(#paint9_linear)"/>
<path d="M129.15 199.907L124.369 230.092L179.335 205.01L152.753 188.644L146.221 202.967L129.15 199.907Z" fill="url(#paint10_linear)"/>
<path d="M304.515 141.308L266.751 133.85C266.353 133.771 265.975 133.615 265.638 133.391C265.301 133.166 265.012 132.878 264.786 132.541C264.561 132.204 264.404 131.827 264.325 131.43C264.246 131.032 264.246 130.623 264.325 130.226L268.502 109.089C268.575 108.693 268.729 108.316 268.955 107.982C269.292 107.471 269.773 107.071 270.338 106.834C270.902 106.598 271.525 106.535 272.126 106.654L309.89 114.112C310.337 114.196 310.759 114.38 311.125 114.65C311.491 114.92 311.792 115.27 312.004 115.672C312.344 116.303 312.458 117.031 312.326 117.735L308.139 138.872C308.061 139.27 307.906 139.65 307.682 139.988C307.458 140.326 307.17 140.617 306.833 140.843C306.496 141.069 306.118 141.227 305.72 141.307C305.323 141.386 304.913 141.387 304.515 141.308Z" fill="#68E1FD"/>
<path d="M312.004 115.652L289.136 128.736L269.005 107.962C269.342 107.451 269.823 107.051 270.388 106.814C270.953 106.578 271.575 106.515 272.176 106.633L309.94 114.092C310.378 114.183 310.791 114.37 311.147 114.64C311.504 114.909 311.797 115.255 312.004 115.652Z" fill="url(#paint11_linear)"/>
<path d="M281.899 121.278L269.025 134.293L304.515 141.308L297.308 124.056L289.136 128.737L281.899 121.278Z" fill="url(#paint12_linear)"/>
<defs>
<linearGradient id="paint0_linear" x1="247.356" y1="154.236" x2="273.938" y2="217.724" gradientUnits="userSpaceOnUse">
<stop offset="0.01" stop-color="white"/>
<stop offset="1" stop-color="white" stop-opacity="0"/>
</linearGradient>
<linearGradient id="paint1_linear" x1="228.049" y1="173.162" x2="353.743" y2="252.347" gradientUnits="userSpaceOnUse">
<stop offset="0.01"/>
<stop offset="0.08" stop-opacity="0.69"/>
<stop offset="0.21" stop-opacity="0.32"/>
<stop offset="1" stop-opacity="0"/>
</linearGradient>
<linearGradient id="paint2_linear" x1="20593.7" y1="23906.1" x2="-4626.57" y2="12657" gradientUnits="userSpaceOnUse">
<stop offset="0.01"/>
<stop offset="0.08" stop-opacity="0.69"/>
<stop offset="0.21" stop-opacity="0.32"/>
<stop offset="1" stop-opacity="0"/>
</linearGradient>
<linearGradient id="paint3_linear" x1="14825.8" y1="4404.5" x2="14433.6" y2="8601.81" gradientUnits="userSpaceOnUse">
<stop offset="0.01"/>
<stop offset="0.08" stop-opacity="0.69"/>
<stop offset="0.21" stop-opacity="0.32"/>
<stop offset="1" stop-opacity="0"/>
</linearGradient>
<linearGradient id="paint4_linear" x1="9804.09" y1="3225.4" x2="11576.3" y2="6209.41" gradientUnits="userSpaceOnUse">
<stop offset="0.01"/>
<stop offset="0.08" stop-opacity="0.69"/>
<stop offset="0.21" stop-opacity="0.32"/>
<stop offset="1" stop-opacity="0"/>
</linearGradient>
<linearGradient id="paint5_linear" x1="8121.82" y1="551.339" x2="8188.31" y2="-210.76" gradientUnits="userSpaceOnUse">
<stop offset="0.01"/>
<stop offset="0.08" stop-opacity="0.69"/>
<stop offset="0.21" stop-opacity="0.32"/>
<stop offset="1" stop-opacity="0"/>
</linearGradient>
<linearGradient id="paint6_linear" x1="8989.8" y1="3356.12" x2="10037.5" y2="5513.39" gradientUnits="userSpaceOnUse">
<stop offset="0.01"/>
<stop offset="0.08" stop-opacity="0.69"/>
<stop offset="0.21" stop-opacity="0.32"/>
<stop offset="1" stop-opacity="0"/>
</linearGradient>
<linearGradient id="paint7_linear" x1="4772.55" y1="1589.18" x2="4912" y2="2008.15" gradientUnits="userSpaceOnUse">
<stop offset="0.01"/>
<stop offset="0.08" stop-opacity="0.69"/>
<stop offset="0.21" stop-opacity="0.32"/>
<stop offset="1" stop-opacity="0"/>
</linearGradient>
<linearGradient id="paint8_linear" x1="13971.8" y1="14941.9" x2="5191.99" y2="21967.4" gradientUnits="userSpaceOnUse">
<stop offset="0.01"/>
<stop offset="0.08" stop-opacity="0.69"/>
<stop offset="0.21" stop-opacity="0.32"/>
<stop offset="1" stop-opacity="0"/>
</linearGradient>
<linearGradient id="paint9_linear" x1="25038.8" y1="3387.36" x2="25799" y2="7959.5" gradientUnits="userSpaceOnUse">
<stop offset="0.01" stop-color="white"/>
<stop offset="1" stop-color="white" stop-opacity="0"/>
</linearGradient>
<linearGradient id="paint10_linear" x1="18918" y1="5118.56" x2="25852.8" y2="13903.8" gradientUnits="userSpaceOnUse">
<stop offset="0.01"/>
<stop offset="0.08" stop-opacity="0.69"/>
<stop offset="0.21" stop-opacity="0.32"/>
<stop offset="1" stop-opacity="0"/>
</linearGradient>
<linearGradient id="paint11_linear" x1="-22692.9" y1="-4155.11" x2="-23372.4" y2="-2798.55" gradientUnits="userSpaceOnUse">
<stop offset="0.01" stop-color="white"/>
<stop offset="1" stop-color="white" stop-opacity="0"/>
</linearGradient>
<linearGradient id="paint12_linear" x1="-19691.5" y1="-3091.74" x2="-19943.5" y2="344.828" gradientUnits="userSpaceOnUse">
<stop offset="0.01"/>
<stop offset="0.08" stop-opacity="0.69"/>
<stop offset="0.21" stop-opacity="0.32"/>
<stop offset="1" stop-opacity="0"/>
</linearGradient>
</defs>
</svg>
