<svg width="167" height="127" viewBox="0 0 167 127" fill="none" xmlns="http://www.w3.org/2000/svg">
<g id="Take">
<path id="Vector" opacity="0.3" d="M31.9429 53.8214C31.9429 53.8214 11.6441 99.7167 65.0883 100.361C118.532 101.004 142.96 93.9558 143.203 70.5942C143.445 47.2327 124.198 25.443 90.6476 25.1964C57.0973 24.9497 38.9569 33.7542 31.9429 53.8214Z" fill="#E6E6E6"/>
<path id="Vector_2" d="M104.421 109.144V90.7533L122.787 89.1104L126.068 109.144H104.421Z" fill="#68E1FD"/>
<path id="Vector_3" d="M101.01 81.3762L105.569 87.7977V90.653L121.634 89.2149L120.82 81.3762C120.82 81.3762 122.787 72.0365 120.328 65.9579C119.233 63.1404 118.748 60.1224 118.904 57.1032C119.025 54.3231 115.034 53.6834 114.311 56.3758C113.932 58.287 113.77 60.235 113.827 62.1827C113.838 63.1658 113.633 64.1393 113.226 65.0339C112.245 67.2037 110.608 71.4638 111.589 73.851L109.698 83.1655L101.01 81.3762Z" fill="#F4A28C"/>
<path id="Vector_4" opacity="0.09" d="M109.698 83.1446L111.322 90.1388L105.569 90.6531V87.7977L101.01 81.3762L109.698 83.1446Z" fill="black"/>
<path id="Vector_5" d="M49.5406 34.2141C49.5406 34.2141 45.8248 35.0503 45.3029 30.4933C44.7811 25.9364 45.3029 24.2224 45.3029 24.2224H54.0412C54.0412 24.2224 58.4751 35.1966 49.5406 34.2141Z" fill="#68E1FD"/>
<path id="Vector_6" opacity="0.08" d="M49.5406 34.2141C49.5406 34.2141 45.8248 35.0503 45.3029 30.4933C44.7811 25.9364 45.3029 24.2224 45.3029 24.2224H54.0412C54.0412 24.2224 58.4751 35.1966 49.5406 34.2141Z" fill="black"/>
<path id="Vector_7" d="M56.0953 18.8125C56.0953 18.8125 53.0643 18.7373 52.3796 23.0475C51.6949 27.3578 53.3565 33.332 49.5406 34.2141H60.1993C60.1993 34.2141 66.7583 19.0801 56.0953 18.8125Z" fill="#24285B"/>
<path id="Vector_8" d="M62.7503 18.8125H56.0953C57.2237 19.3395 58.1956 20.1518 58.9153 21.1693C59.6349 22.1868 60.0774 23.3744 60.1993 24.6153V81.5726C60.1993 83.3944 60.922 85.1415 62.2084 86.4296C63.4949 87.7178 65.2396 88.4415 67.0589 88.4415H107.381C108.282 88.4415 109.173 88.2638 110.005 87.9185C110.837 87.5733 111.593 87.0673 112.23 86.4294C112.867 85.7915 113.371 85.0342 113.716 84.2009C114.06 83.3676 114.237 82.4745 114.236 81.5726V26.3879C114.236 25.3938 114.041 24.4095 113.661 23.4911C113.281 22.5728 112.724 21.7384 112.022 21.0357C111.319 20.333 110.486 19.7757 109.569 19.3957C108.651 19.0156 107.668 18.8203 106.675 18.8209L62.7503 18.8125Z" fill="#68E1FD"/>
<path id="Vector_9" opacity="0.08" d="M88.4599 44.0972C88.4599 44.0972 95.1399 55.385 86.3348 64.0683C77.5297 72.7515 66.5871 69.3359 66.5871 69.3359L61.0719 83.3997L57.0555 78.4414L61.5061 66.4889L64.5872 60.013L77.1122 54.6534L88.4599 44.0972Z" fill="black"/>
<path id="Vector_10" opacity="0.35" d="M77.1248 30.3554H101.519C102.506 30.3554 103.452 30.7479 104.15 31.4464C104.847 32.145 105.239 33.0925 105.239 34.0804V60.962C105.239 61.95 104.847 62.8974 104.15 63.596C103.452 64.2946 102.506 64.687 101.519 64.687H77.1248V30.3554Z" fill="white"/>
<path id="Vector_11" d="M65.2094 61.738L60.7289 59.1078L55.7353 67.6374L60.2159 70.2676L65.2094 61.738Z" fill="#24285B"/>
<path id="Vector_12" opacity="0.29" d="M65.2094 61.738L60.7289 59.1078L55.7353 67.6374L60.2159 70.2676L65.2094 61.738Z" fill="white"/>
<path id="Vector_13" d="M70.6911 65.3015C80.6567 65.3015 88.7355 57.2118 88.7355 47.2327C88.7355 37.2536 80.6567 29.1639 70.6911 29.1639C60.7255 29.1639 52.6468 37.2536 52.6468 47.2327C52.6468 57.2118 60.7255 65.3015 70.6911 65.3015Z" fill="#FFD200"/>
<path id="Vector_14" d="M70.6911 60.0088C77.7376 60.0088 83.4499 54.2888 83.4499 47.2327C83.4499 40.1767 77.7376 34.4566 70.6911 34.4566C63.6446 34.4566 57.9323 40.1767 57.9323 47.2327C57.9323 54.2888 63.6446 60.0088 70.6911 60.0088Z" fill="white"/>
<path id="Vector_15" d="M61.0487 68.6827L56.6617 66.1075C55.6453 65.5108 54.3382 65.8522 53.7423 66.8701L45.3789 81.1559C44.783 82.1737 45.124 83.4826 46.1405 84.0793L50.5274 86.6545C51.5438 87.2512 52.8509 86.9098 53.4468 85.8919L61.8102 71.6061C62.4061 70.5883 62.0651 69.2794 61.0487 68.6827Z" fill="#24285B"/>
<path id="Vector_16" d="M43.2071 80.3059C43.3606 78.3513 43.939 76.454 44.9017 74.7468C45.8645 73.0396 47.1884 71.5638 48.7807 70.4228C50.8925 68.8862 53.5005 68.1931 56.0953 68.4788C64.3117 69.3986 62.6083 81.7901 58.6003 88.8345C54.5923 95.8789 48.693 96.7986 45.09 93.1197C42.7353 90.72 42.8397 84.4573 43.2071 80.3059Z" fill="#F4A28C"/>
<path id="Vector_17" d="M41.4202 87.4089L38.0092 109.144H57.9281L58.617 90.5402L41.4202 87.4089Z" fill="#68E1FD"/>
<path id="Vector_18" d="M70.0941 52.7762C69.9375 52.7769 69.7828 52.7419 69.6417 52.6738C69.5007 52.6057 69.3769 52.5063 69.2799 52.3832L65.7688 47.9894C65.6832 47.882 65.6197 47.7589 65.5817 47.6269C65.5437 47.495 65.532 47.3569 65.5473 47.2204C65.5626 47.0839 65.6046 46.9518 65.6709 46.8316C65.7372 46.7114 65.8265 46.6055 65.9337 46.5198C66.0409 46.4342 66.1639 46.3705 66.2956 46.3325C66.4274 46.2944 66.5653 46.2827 66.7016 46.2981C66.8379 46.3134 66.9698 46.3555 67.0898 46.4219C67.2099 46.4882 67.3157 46.5777 67.4012 46.685L69.9855 49.9208L73.9267 43.5495C73.9967 43.4286 74.0903 43.3229 74.2018 43.2388C74.3133 43.1548 74.4405 43.0939 74.5759 43.0599C74.7113 43.0259 74.8521 43.0195 74.9901 43.041C75.128 43.0625 75.2602 43.1114 75.3789 43.185C75.4976 43.2585 75.6004 43.3552 75.6811 43.4692C75.7619 43.5832 75.8189 43.7123 75.849 43.8488C75.879 43.9853 75.8814 44.1265 75.856 44.2639C75.8306 44.4014 75.7779 44.5323 75.7011 44.649L70.975 52.2829C70.8855 52.4261 70.7629 52.5457 70.6176 52.6316C70.4723 52.7175 70.3085 52.7671 70.14 52.7762H70.0941Z" fill="#24285B"/>
<path id="Vector_19" d="M105.239 71.468H70.6911V80.2934H105.239V71.468Z" fill="#24285B"/>
<path id="Vector_20" d="M123.63 14.2556H93.783V35.2467H123.63V14.2556Z" fill="#24285B"/>
<path id="Vector_21" d="M105.043 26.5175H100.768V29.3561H105.043V26.5175Z" fill="#FFD200"/>
<path id="Vector_22" d="M111.138 23.5868H106.863V29.3561H111.138V23.5868Z" fill="#FFD200"/>
<path id="Vector_23" d="M117.105 19.8033H112.829V29.3603H117.105V19.8033Z" fill="#FFD200"/>
<path id="Vector_24" d="M118.762 29.2056H99.5028V30.4389H118.762V29.2056Z" fill="white"/>
</g>
</svg>
